<svg xmlns="http://www.w3.org/2000/svg" viewBox="0 0 64 64"><g id="_22-Reservations" data-name="22-Reservations"><path d="M49,56v2H15V56a2.006,2.006,0,0,1,2-2H47A2.006,2.006,0,0,1,49,56Z" style="fill:#7e8596"/><polygon points="21 48 43 48 45 54 40 54 39 51 25 51 24 54 19 54 21 48" style="fill:#afb4c8"/><path d="M63,40v4a4,4,0,0,1-4,4H5a4,4,0,0,1-4-4V40Z" style="fill:#e9edf5"/><path d="M63,6V40H1V6A4,4,0,0,1,5,2H59A4,4,0,0,1,63,6Z" style="fill:#a3d4ff"/><path d="M59,40v4a4,4,0,0,1-4,4h4a4,4,0,0,0,4-4V40Z" style="fill:#dce1eb"/><path d="M59,2H55a4,4,0,0,1,4,4V40h4V6A4,4,0,0,0,59,2Z" style="fill:#65b1fc"/><path d="M5,40v4a4,4,0,0,0,4,4H5a4,4,0,0,1-4-4V40Z" style="fill:#dce1eb"/><path d="M5,2H9A4,4,0,0,0,5,6V40H1V6A4,4,0,0,1,5,2Z" style="fill:#65b1fc"/><rect x="12" y="22" width="4" height="8" style="fill:#b2876d"/><rect x="14" y="22" width="2" height="8" style="fill:#966857"/><polygon points="13 10 13 12.73 9 14.91 9 10 13 10" style="fill:#966857"/><polygon points="11 10 9 10 9 14.91 11 13.82 11 10" style="fill:#b2876d"/><rect x="19" y="22" width="5" height="4" style="fill:#a3d4ff"/><rect x="19" y="24" width="5" height="2" style="fill:#65b1fc"/><path d="M24,22H19v4h5Zm3-3.09V30H16V22H12v8H9V18.91L18,14Z" style="fill:#f7f7f7"/><polygon points="18 14 9 18.91 9 20.91 18 16 27 20.91 27 18.91 18 14" style="fill:#cfcfcf"/><polygon points="13 12.73 18 10 29 16 29 20 27 18.91 18 14 9 18.91 7 20 7 16 9 14.91 13 12.73" style="fill:#ff936b"/><polygon points="18 12 9 16.91 7 18 7 20 9 18.91 18 14 27 18.91 29 20 29 18 27 16.91 18 12" style="fill:#ff7045"/><rect x="40" y="22" width="4" height="8" style="fill:#b2876d"/><rect x="42" y="22" width="2" height="8" style="fill:#966857"/><polygon points="41 10 41 12.73 37 14.91 37 10 41 10" style="fill:#966857"/><polygon points="39 10 37 10 37 14.91 39 13.82 39 10" style="fill:#b2876d"/><rect x="47" y="22" width="5" height="4" style="fill:#a3d4ff"/><rect x="47" y="24" width="5" height="2" style="fill:#65b1fc"/><path d="M52,22H47v4h5Zm3-3.09V30H44V22H40v8H37V18.91L46,14Z" style="fill:#f7f7f7"/><polygon points="46 14 37 18.91 37 20.91 46 16 55 20.91 55 18.91 46 14" style="fill:#cfcfcf"/><polygon points="41 12.73 46 10 57 16 57 20 55 18.91 46 14 37 18.91 35 20 35 16 37 14.91 41 12.73" style="fill:#ff936b"/><polygon points="46 12 37 16.91 35 18 35 20 37 18.91 46 14 55 18.91 57 20 57 18 55 16.91 46 12" style="fill:#ff7045"/><polygon points="59 54 59 62 44 62 43 62 43 54 45 54 57 54 59 54" style="fill:#ff936b"/><polygon points="59 54 59 56 44 56 43 56 43 54 45 54 57 54 59 54" style="fill:#ffb89c"/><polygon points="59 59 59 62 44 62 43 62 43 59 45 59 57 59 59 59" style="fill:#ff7045"/><path d="M43,39V50l-4-4V41a2.006,2.006,0,0,1,2-2Z" style="fill:#ffbeaa"/><path d="M55,37a2.015,2.015,0,0,1,2-2,2.006,2.006,0,0,1,2,2V50l-2,2v2H45V52l-2-2V28a2.015,2.015,0,0,1,2-2,2.006,2.006,0,0,1,2,2v7a2.006,2.006,0,0,1,2-2,2.015,2.015,0,0,1,2,2v1a2.006,2.006,0,0,1,2-2,2.015,2.015,0,0,1,2,2Z" style="fill:#ffdecf"/><path d="M45,26h0a2,2,0,0,1,2,2V42a0,0,0,0,1,0,0H45a0,0,0,0,1,0,0V26A0,0,0,0,1,45,26Z" style="fill:#ffbeaa"/><path d="M49,33h0a2,2,0,0,1,2,2v7a0,0,0,0,1,0,0H49a0,0,0,0,1,0,0V33A0,0,0,0,1,49,33Z" style="fill:#ffbeaa"/><path d="M53,34h0a2,2,0,0,1,2,2v6a0,0,0,0,1,0,0H53a0,0,0,0,1,0,0V34A0,0,0,0,1,53,34Z" style="fill:#ffbeaa"/><path d="M57,35V50l-2,2v2h2V52l2-2V37A2.006,2.006,0,0,0,57,35Z" style="fill:#ffbeaa"/><path d="M59,1H5A5.006,5.006,0,0,0,0,6V44a5.006,5.006,0,0,0,5,5H19.613L18.28,53H17a3,3,0,0,0-3,3v2a1,1,0,0,0,1,1H41V57H16V56a1,1,0,0,1,1-1H41V53h-.28l-.772-2.316A1,1,0,0,0,39,50H25a1,1,0,0,0-.948.684L23.28,53H20.388l1.333-4H36V47H5a3,3,0,0,1-3-3V41H36V39H2V6A3,3,0,0,1,5,3H59a3,3,0,0,1,3,3V39H60V37a3,3,0,0,0-3-3,2.967,2.967,0,0,0-1.471.4,2.955,2.955,0,0,0-4-1A2.94,2.94,0,0,0,48,32.184V28a3,3,0,0,0-6,0V38H41a3,3,0,0,0-3,3v5a1,1,0,0,0,.293.707l4,4L44,52.414V53H43a1,1,0,0,0-1,1v8a1,1,0,0,0,1,1H59a1,1,0,0,0,1-1V54a1,1,0,0,0-1-1H58v-.586l1.707-1.707A1,1,0,0,0,60,50V48.9A5.009,5.009,0,0,0,64,44V6A5.006,5.006,0,0,0,59,1ZM25.721,52H38.279l.334,1H25.387ZM40,41a1,1,0,0,1,1-1h1v7.586l-2-2ZM58,61H44V55H58Zm0-11.414-1.707,1.707A1,1,0,0,0,56,52v1H46V52a1,1,0,0,0-.293-.707L44,49.586V28a1,1,0,0,1,2,0V42h2V35a1,1,0,0,1,2,0v7h2V36a1,1,0,0,1,2,0v6h2V37a1,1,0,0,1,2,0Zm2-2.77V41h2v3A3,3,0,0,1,60,46.816Z"/><path d="M9,31H27a1,1,0,0,0,1-1V20.593l.521.285A1,1,0,0,0,30,20V16a1,1,0,0,0-.521-.878l-11-6a1,1,0,0,0-.958,0L14,11.043V10a1,1,0,0,0-1-1H9a1,1,0,0,0-1,1v4.316l-1.479.806A1,1,0,0,0,6,16v4a1,1,0,0,0,1.479.878L8,20.593V30A1,1,0,0,0,9,31Zm4-2V23h2v6Zm13,0H17V22a1,1,0,0,0-1-1H12a1,1,0,0,0-1,1v7H10V19.5l8-4.364L26,19.5ZM10,11h2v1.134l-2,1.091ZM8,16.594l10-5.455,10,5.455v1.721l-9.521-5.193a1,1,0,0,0-.958,0L8,18.315Z"/><path d="M18,26a1,1,0,0,0,1,1h5a1,1,0,0,0,1-1V22a1,1,0,0,0-1-1H19a1,1,0,0,0-1,1Zm2-3h3v2H20Z"/><path d="M37,31h4V29H38V19.5l8-4.364L54,19.5V29H50v2h5a1,1,0,0,0,1-1V20.593l.521.285A1,1,0,0,0,58,20V16a1,1,0,0,0-.521-.878l-11-6a1,1,0,0,0-.958,0L42,11.043V10a1,1,0,0,0-1-1H37a1,1,0,0,0-1,1v4.316l-1.479.806A1,1,0,0,0,34,16v4a1,1,0,0,0,1.479.878L36,20.593V30A1,1,0,0,0,37,31Zm1-20h2v1.134l-2,1.091Zm-2,5.594,10-5.455,10,5.455v1.721l-9.521-5.193a1,1,0,0,0-.958,0L36,18.315Z"/></g></svg>