<?xml version="1.0" encoding="iso-8859-1"?>
<!-- Generator: Adobe Illustrator 19.0.0, SVG Export Plug-In . SVG Version: 6.00 Build 0)  -->
<svg xmlns="http://www.w3.org/2000/svg" xmlns:xlink="http://www.w3.org/1999/xlink" version="1.1" id="Layer_1" x="0px" y="0px" viewBox="0 0 511.999 511.999" style="enable-background:new 0 0 511.999 511.999;" xml:space="preserve">
<path style="fill:#565159;" d="M165.874,285.147H67.202c-11.184,0-20.25-9.066-20.25-20.25v-160.21V78.482V27.971  c0-11.184,9.066-20.25,20.25-20.25h382.274c11.184,0,20.25,9.066,20.25,20.25v236.925c0,11.184-9.066,20.25-20.25,20.25h-98.672  h-184.93V285.147z"/>
<rect x="46.949" y="41.795" style="opacity:0.65;fill:#E0E0E2;enable-background:new    ;" width="422.773" height="183.209"/>
<polygon style="opacity:0.35;fill:#FFFFFF;enable-background:new    ;" points="267.664,225.006 106.446,225.006 222.977,41.799   384.195,41.799 "/>
<path style="opacity:0.26;fill:#3F3C43;enable-background:new    ;" d="M449.476,7.721h-21.001v215.924  c0,11.184-9.066,20.25-20.25,20.25h-98.672h-184.93H46.952v21.001c0,11.184,9.066,20.25,20.25,20.25h98.673h184.93h98.672  c11.184,0,20.25-9.066,20.25-20.25V27.971C469.726,16.788,460.66,7.721,449.476,7.721z"/>
<path style="fill:#FF8E76;" d="M160.759,275.634c-17.378,0-31.466-14.088-31.466-31.466s14.088-31.466,31.466-31.466l191.808-0.262  c17.378,0,31.466,14.088,31.466,31.466c0,17.378-14.088,31.466-31.466,31.466L160.759,275.634z"/>
<polygon style="fill:#FFDC5E;" points="403.302,475.257 467.033,475.257 467.033,369.116 337.926,369.116 173.376,369.116   42.274,369.116 42.274,475.257 106.446,475.257 "/>
<g>
	<path style="fill:#FFA591;" d="M252.947,90.595h10.785c49.046,0,89.175,40.129,89.175,89.175v86.178   c0,49.046-40.129,89.174-89.175,89.174h-10.785c-49.046,0-89.175-40.129-89.175-89.175V179.77   c0-40.004,26.696-74.075,63.154-85.278L252.947,90.595z"/>
	<path style="fill:#FFA591;" d="M106.446,504.405v-64.341c0-17.428,14.128-31.557,31.557-31.557h24.677   c19.211,0,34.784-15.573,34.784-34.784v-45.859l114.819,4.959v40.9c0,19.211,15.573,34.784,34.784,34.784h24.677   c17.428,0,31.557,14.128,31.557,31.557v64.341H106.446z"/>
</g>
<path style="opacity:0.18;fill:#892813;enable-background:new    ;" d="M347.653,408.508c-19.211,0-34.784-15.573-34.784-34.784  v-33.083c24.408-15.955,40.623-43.521,40.623-74.694V179.77c0-49.046-40.129-89.175-89.175-89.175h-10.785l-8.211,1.229  c42.108,7.067,74.461,43.908,74.461,87.945v86.178c0,26.844-12.023,51.013-30.948,67.396c-6.227,5.39-9.674,13.316-9.674,21.552  v18.829c0,19.211,15.573,34.784,34.784,34.784h24.676L347.653,408.508L347.653,408.508z"/>
<path style="fill:#608ECF;" d="M373.534,408.508h-24.677c-10.891,0-20.61-5.009-26.988-12.845  c-35.945-35.945-94.224-35.945-130.169,0h-0.242c-6.379,7.837-16.096,12.844-26.988,12.844h-24.677  c-17.428,0-31.557,14.128-31.557,31.557v64.341H405.09v-64.341C405.091,422.636,390.962,408.508,373.534,408.508z"/>
<path style="fill:#3D689C;" d="M377.028,408.704c0.127,1.148,0.197,2.313,0.197,3.494v49.609c0,8.136-6.595,14.732-14.732,14.732  H108.236v27.866H405.09v-64.341C405.091,423.818,392.811,410.444,377.028,408.704z"/>
<path style="fill:#892813;" d="M210.161,279.222c26.608,26.608,69.748,26.608,96.356,0c0,0,38.046,0.926,46.05-30.54h0.339v-68.914  c0-49.046-40.129-89.175-89.175-89.175h-10.785l-26.021,3.896c-36.458,11.203-63.154,45.274-63.154,85.278v68.914  C175.275,287.825,210.161,279.222,210.161,279.222z"/>
<path d="M356.723,292.741h92.753c15.353,0,27.843-12.491,27.843-27.843V27.971c0-15.352-12.49-27.843-27.843-27.843H85.395  C84.954,0.048,84.503,0,84.039,0c-0.464,0-0.914,0.048-1.355,0.128H67.203c-15.353,0-27.843,12.491-27.843,27.843v50.512  c0,4.195,3.399,7.594,7.594,7.594s7.594-3.399,7.594-7.594V49.391h21.9v168.021h-21.9V104.687c0-4.195-3.399-7.594-7.594-7.594  s-7.594,3.399-7.594,7.594v160.209c0,15.352,12.491,27.843,27.843,27.843h92.753c5.284,18.312,15.841,34.408,29.916,46.532v34.451  c0,13.053-9.246,23.983-21.533,26.594v-6.854c0-4.195-3.399-7.594-7.594-7.594c-4.195,0-7.594,3.399-7.594,7.594v7.45h-14.403v-7.45  c0-4.195-3.399-7.594-7.594-7.594c-4.195,0-7.594,3.399-7.594,7.594v10.223c-9.961,3.969-17.916,11.909-21.905,21.859  c-0.535-0.12-1.089-0.187-1.66-0.187c-4.195,0-7.594,3.399-7.594,7.594v14.335c0,3.805,2.801,6.946,6.451,7.498v12.88H49.867  v-90.954h123.508c4.195,0,7.594-3.399,7.594-7.594s-3.399-7.594-7.594-7.594H42.273c-4.195,0-7.594,3.399-7.594,7.594v106.142  c0,4.195,3.399,7.594,7.594,7.594h56.58v21.555c0,4.195,3.399,7.594,7.594,7.594c4.195,0,7.594-3.399,7.594-7.594v-64.341  c0-13.214,10.75-23.963,23.963-23.963h24.676c12.621,0,23.962-5.552,31.733-14.335c0.302-0.223,0.594-0.462,0.867-0.734  c32.905-32.906,86.434-32.926,119.365-0.062c7.78,9.243,19.424,15.131,32.423,15.131h24.677c13.213,0,23.962,10.75,23.962,23.963  v64.341c0,4.195,3.399,7.594,7.594,7.594c4.195,0,7.594-3.399,7.594-7.594v-21.555h56.137c4.195,0,7.594-3.399,7.594-7.594V369.115  c0-4.195-3.399-7.594-7.594-7.594H337.926c-4.195,0-7.594,3.399-7.594,7.594s3.399,7.594,7.594,7.594h121.513v90.954h-48.544  v-14.488c1.71-1.392,2.805-3.512,2.805-5.891V432.95c0-3.492-2.36-6.426-5.571-7.313c-4.45-11.182-13.905-19.841-25.59-23.198  v-8.976c0-4.195-3.399-7.594-7.594-7.594c-4.195,0-7.594,3.399-7.594,7.594v7.45H352.95v-7.45c0-4.195-3.399-7.594-7.594-7.594  s-7.594,3.399-7.594,7.594v5.81c-10.425-3.808-17.886-13.823-17.886-25.55v-29.006C337.412,332.183,350.604,313.947,356.723,292.741  z M360.494,266.419c0.001-0.158,0.006-0.314,0.006-0.472v-44.553c9.274,3.278,15.939,12.129,15.939,22.511  C376.438,254.289,369.771,263.143,360.494,266.419z M449.476,277.553h-77.107c11.513-6.802,19.257-19.334,19.257-33.648  c0-3.93-0.589-7.724-1.675-11.305h72.181v32.297C462.132,271.875,456.455,277.553,449.476,277.553z M54.547,34.204v-6.233  c0-6.979,5.677-12.656,12.656-12.656h9.244v18.889H54.547z M54.547,264.897V232.6h68.903c-1.136,3.657-1.75,7.542-1.75,11.569  c0,14.126,7.539,26.525,18.804,33.386H67.203C60.224,277.553,54.547,271.875,54.547,264.897z M156.2,267.597  c-10.99-2.134-19.313-11.827-19.313-23.43c0-11.597,8.314-21.284,19.293-23.427v45.206  C156.179,266.499,156.191,267.048,156.2,267.597z M171.366,265.947V179.77c0-35.481,23.765-67.564,57.791-78.021  c4.008-1.232,6.26-5.48,5.028-9.489c-1.232-4.008-5.483-6.26-9.489-5.028c-19.37,5.952-36.803,18.215-49.084,34.53  c-12.713,16.887-19.432,36.946-19.432,58.007v25.616c-9.35,1.098-17.697,5.508-23.838,12.026H91.633V49.391h69.125  c4.195,0,7.594-3.399,7.594-7.594s-3.399-7.594-7.594-7.594H91.633V15.315h357.843c6.979,0,12.656,5.677,12.656,12.656v189.441  h-80.897c-5.426-5.867-12.623-10.074-20.735-11.755v-25.888C360.5,126.411,317.09,83,263.732,83h-10.785  c-4.195,0-7.594,3.399-7.594,7.594s3.399,7.594,7.594,7.594h10.785c44.985,0,81.581,36.597,81.581,81.581v30.421  c-0.221,0.711-0.339,1.466-0.339,2.25s0.118,1.539,0.339,2.25v31.783c-0.034,0.113-0.075,0.223-0.105,0.339  c-6.39,25.118-37.218,24.849-38.506,24.819c-2.118-0.029-4.085,0.752-5.555,2.221c-23.604,23.605-62.013,23.605-85.617,0  c-2.967-2.965-7.774-2.965-10.739,0c-2.966,2.967-2.966,7.774,0,10.739c14.303,14.303,33.321,22.18,53.548,22.18  c19.169,0,37.252-7.074,51.266-19.99c9.936-0.406,24.214-3.655,35.296-12.639c-4.124,41.148-38.951,73.384-81.169,73.384h-10.785  C207.963,347.527,171.366,310.931,171.366,265.947z M205.058,373.723V350.01c10.967,6.272,23.274,10.456,36.374,12.016  c-12.913,1.747-25.233,5.982-36.395,12.471C205.043,374.239,205.058,373.983,205.058,373.723z M304.706,374.354  c-10.32-5.96-21.626-9.998-33.471-11.928c11.876-0.915,23.156-3.989,33.454-8.82v20.118  C304.69,373.935,304.703,374.143,304.706,374.354z"/>
<path d="M78.001,393.463c0-4.195-3.399-7.594-7.594-7.594c-4.195,0-7.594,3.399-7.594,7.594v14.335c0,4.195,3.399,7.594,7.594,7.594  c4.195,0,7.594-3.399,7.594-7.594V393.463z"/>
<path d="M92.402,393.463v14.335c0,4.195,3.399,7.594,7.594,7.594c4.195,0,7.594-3.399,7.594-7.594v-14.335  c0-4.195-3.399-7.594-7.594-7.594C95.801,385.87,92.402,389.27,92.402,393.463z"/>
<path d="M70.407,425.357c-4.195,0-7.594,3.399-7.594,7.594v14.335c0,4.195,3.399,7.594,7.594,7.594c4.195,0,7.594-3.399,7.594-7.594  V432.95C78.001,428.757,74.601,425.357,70.407,425.357z"/>
<path d="M435.695,415.393c4.195,0,7.594-3.399,7.594-7.594v-14.335c0-4.195-3.399-7.594-7.594-7.594s-7.594,3.399-7.594,7.594  v14.335C428.102,411.993,431.5,415.393,435.695,415.393z"/>
<path d="M406.105,415.393c4.195,0,7.594-3.399,7.594-7.594v-14.335c0-4.195-3.399-7.594-7.594-7.594  c-4.195,0-7.594,3.399-7.594,7.594v14.335C398.512,411.993,401.912,415.393,406.105,415.393z"/>
<path d="M428.102,447.286c0,4.195,3.399,7.594,7.594,7.594s7.594-3.399,7.594-7.594v-14.335c0-4.195-3.399-7.594-7.594-7.594  s-7.594,3.399-7.594,7.594V447.286z"/>
<path d="M367.811,49.082h5.618l14.786,37.628c1.142,2.905,3.946,4.816,7.067,4.816h29.769c4.195,0,7.594-3.399,7.594-7.594  s-3.399-7.594-7.594-7.594h-24.594l-3.805-9.682h35.006c4.195,0,7.594-3.399,7.594-7.594s-3.399-7.594-7.594-7.594h-40.974  l-5.013-12.758c-1.142-2.905-3.946-4.816-7.067-4.816h-10.793c-4.195,0-7.594,3.399-7.594,7.594S363.616,49.082,367.811,49.082z"/>
<path d="M396.431,97.093c-4.195,0-7.594,3.399-7.594,7.594v4.222c0,4.195,3.399,7.594,7.594,7.594s7.594-3.399,7.594-7.594v-4.222  C404.025,100.492,400.626,97.093,396.431,97.093z"/>
<path d="M425.052,97.093c-4.195,0-7.594,3.399-7.594,7.594v4.222c0,4.195,3.399,7.594,7.594,7.594c4.195,0,7.594-3.399,7.594-7.594  v-4.222C432.646,100.492,429.247,97.093,425.052,97.093z"/>
<path d="M205.058,216.121v-39.679c0.029-4.902,1.877-18.675,9.967-23.476c3.607-2.14,4.795-6.8,2.656-10.405  c-2.141-3.607-6.799-4.793-10.405-2.656c-17.206,10.211-17.404,35.446-17.404,36.514v39.703c0,4.195,3.399,7.594,7.594,7.594  C201.66,223.714,205.058,220.315,205.058,216.121z"/>
<path d="M336.325,41.797c0-4.195-3.399-7.594-7.594-7.594H203.409c-4.195,0-7.594,3.399-7.594,7.594s3.399,7.594,7.594,7.594  h125.322C332.926,49.391,336.325,45.992,336.325,41.797z"/>
<g>
</g>
<g>
</g>
<g>
</g>
<g>
</g>
<g>
</g>
<g>
</g>
<g>
</g>
<g>
</g>
<g>
</g>
<g>
</g>
<g>
</g>
<g>
</g>
<g>
</g>
<g>
</g>
<g>
</g>
</svg>
