<svg xmlns="http://www.w3.org/2000/svg" xmlns:xlink="http://www.w3.org/1999/xlink" width="500" zoomAndPan="magnify" viewBox="0 0 375 374.999991" height="500" preserveAspectRatio="xMidYMid meet" version="1.0"><defs><clipPath id="1fd73b6b7f"><path d="M 37.5 45.265625 L 337.5 45.265625 L 337.5 328.015625 L 37.5 328.015625 Z M 37.5 45.265625 " clip-rule="nonzero"/></clipPath></defs><path fill="#000000" d="M 187.5 375 C 83.910156 375 0 290.507812 0 187.5 C 0 84.492188 83.910156 0 187.5 0 C 291.089844 0 375 83.910156 375 187.5 C 375 291.089844 290.507812 375 187.5 375 Z M 187.5 11.574219 C 90.277344 11.574219 11.574219 90.277344 11.574219 187.5 C 11.574219 284.722656 90.277344 363.425781 187.5 363.425781 C 284.722656 363.425781 363.425781 284.722656 363.425781 187.5 C 363.425781 90.277344 284.144531 11.574219 187.5 11.574219 Z M 187.5 11.574219 " fill-opacity="1" fill-rule="nonzero"/><g clip-path="url(#1fd73b6b7f)"><path fill="#ff3131" d="M 156.835938 75.199219 C 156.835938 75.199219 157.324219 73.792969 158.101562 71.601562 C 158.425781 70.007812 158.765625 68.417969 159.09375 66.824219 C 160.410156 64.839844 161.730469 62.867188 163.050781 60.882812 C 163.703125 59.519531 164.371094 58.15625 165.023438 56.78125 C 166.136719 55.351562 167.25 53.933594 168.363281 52.507812 C 169.625 52.933594 170.878906 53.347656 172.144531 53.773438 C 173.738281 53.835938 175.328125 53.890625 176.921875 53.957031 L 179.167969 51.796875 C 179.167969 51.796875 178.894531 48.917969 178.894531 48.917969 C 179.769531 47.71875 180.640625 46.519531 181.503906 45.320312 C 182.296875 45.832031 183.082031 46.335938 183.878906 46.847656 C 184.140625 48.023438 184.402344 49.214844 184.652344 50.390625 C 185.679688 50.980469 186.714844 51.570312 187.738281 52.15625 C 189.496094 52.429688 191.261719 52.703125 193.019531 52.964844 C 194.542969 53.007812 196.082031 53.042969 197.609375 53.085938 C 199.800781 55.441406 201.992188 57.785156 204.183594 60.140625 C 204.828125 60.160156 205.460938 60.183594 206.105469 60.207031 L 207.128906 58.886719 C 207.128906 58.886719 210.160156 57.5 210.160156 57.5 C 211.828125 57.535156 213.496094 57.566406 215.175781 57.589844 C 215.175781 57.589844 216.34375 59.136719 216.34375 59.136719 C 216.386719 60.074219 216.421875 61 216.464844 61.941406 C 217.03125 61.972656 217.585938 61.992188 218.15625 62.027344 C 218.144531 62.660156 218.121094 63.292969 218.109375 63.914062 L 216.269531 66.550781 C 216.332031 68.242188 216.410156 69.933594 216.476562 71.625 C 219.410156 71.796875 222.34375 71.960938 225.265625 72.136719 C 227.019531 69.824219 228.785156 67.511719 230.542969 65.199219 C 231.773438 64.960938 233.007812 64.71875 234.238281 64.480469 L 234.328125 60.304688 C 238.296875 60.324219 242.265625 60.347656 246.246094 60.371094 C 246.246094 60.371094 246.910156 59.53125 246.910156 59.53125 C 248.960938 59.507812 251.011719 59.484375 253.0625 59.464844 L 253.847656 60.542969 C 254.804688 60.542969 255.765625 60.542969 256.726562 60.542969 C 256.726562 60.542969 257.238281 61.316406 257.238281 61.328125 C 257.847656 61.339844 258.460938 61.351562 259.070312 61.363281 L 260.628906 63.464844 C 260.585938 65.964844 260.554688 68.472656 260.511719 70.96875 C 261.546875 72.082031 262.59375 73.195312 263.628906 74.304688 C 263.628906 74.304688 263.835938 78.351562 263.835938 78.363281 C 263.835938 78.363281 264.761719 78.570312 264.761719 78.570312 L 264.882812 80.609375 C 264.074219 81.546875 263.257812 82.484375 262.449219 83.433594 C 262.199219 85.582031 261.949219 87.730469 261.699219 89.890625 C 258.035156 89.039062 254.371094 88.1875 250.71875 87.335938 C 250.554688 90.28125 250.402344 93.214844 250.238281 96.160156 C 251.871094 97.894531 253.519531 99.617188 255.15625 101.351562 C 256.222656 101.863281 257.28125 102.363281 258.351562 102.878906 C 261.949219 102.886719 265.546875 102.898438 269.136719 102.910156 C 269.136719 102.910156 270.160156 104.296875 270.160156 104.296875 C 268.132812 105.515625 266.105469 106.738281 264.066406 107.960938 C 264.066406 107.960938 266.855469 108.710938 266.867188 108.710938 C 267.792969 109.289062 268.722656 109.867188 269.648438 110.457031 L 269.734375 111.960938 C 270.300781 111.960938 270.878906 111.960938 271.449219 111.960938 C 271.449219 111.960938 271.480469 118.078125 271.480469 118.078125 C 271.480469 118.078125 272.308594 118.546875 273.847656 119.429688 C 274.960938 119.800781 276.070312 120.171875 277.183594 120.542969 C 279.167969 120.632812 281.140625 120.730469 283.128906 120.816406 C 283.769531 121.492188 284.402344 122.179688 285.046875 122.855469 L 285.011719 124.839844 C 284.164062 126.136719 283.3125 127.445312 282.460938 128.746094 L 282.550781 130.9375 C 283.507812 131.839844 284.46875 132.757812 285.429688 133.664062 C 287.894531 133.566406 290.347656 133.464844 292.8125 133.355469 L 293.476562 132.691406 C 293.476562 132.691406 295.546875 132.726562 295.546875 132.726562 C 298.035156 135.34375 300.511719 137.96875 302.996094 140.585938 C 302.996094 140.585938 302.460938 144.121094 302.449219 144.132812 C 302.046875 144.523438 301.65625 144.917969 301.25 145.296875 C 301.316406 146.160156 301.371094 147.019531 301.4375 147.882812 C 302.296875 148.644531 303.160156 149.398438 304.019531 150.160156 C 305.296875 150.207031 306.582031 150.238281 307.859375 150.28125 L 308.613281 147.882812 C 309.203125 147.839844 309.789062 147.804688 310.378906 147.761719 L 311.664062 146.378906 C 316.78125 146.34375 321.894531 146.3125 327 146.289062 C 326.113281 146.902344 325.242188 147.511719 324.359375 148.121094 L 323.433594 149.476562 L 323.464844 150.621094 L 324.542969 150.894531 L 324.425781 152.78125 L 323.378906 154.164062 L 323.34375 155.8125 C 323.34375 155.8125 327.847656 160.96875 327.847656 160.96875 C 327.847656 160.96875 327.894531 161.460938 328.089844 163.488281 L 327.542969 165.765625 C 327.207031 166.09375 326.867188 166.433594 326.519531 166.757812 C 325.484375 166.75 324.4375 166.738281 323.398438 166.726562 C 323.398438 166.726562 322.558594 173.085938 322.558594 173.085938 L 321.175781 174.972656 C 321.109375 177.652344 321.035156 180.335938 320.96875 183.019531 C 320.195312 184.773438 319.429688 186.542969 318.65625 188.296875 C 320.726562 189.890625 322.800781 191.480469 324.871094 193.074219 C 325.699219 193.324219 326.53125 193.574219 327.359375 193.828125 C 327.359375 193.828125 334.382812 200.304688 334.382812 200.304688 C 334.226562 203.203125 334.074219 206.105469 333.933594 209.007812 L 331.46875 211.253906 C 329.625 211.6875 327.785156 212.136719 325.953125 212.570312 L 324.359375 213.890625 C 322.070312 214.023438 319.777344 214.152344 317.488281 214.285156 C 317.488281 214.285156 309.179688 224.664062 309.179688 224.664062 C 309.179688 224.664062 309.210938 226.027344 309.265625 228.144531 L 308.066406 230.0625 C 308.089844 231.121094 308.109375 232.179688 308.132812 233.25 C 308.808594 233.652344 309.496094 234.042969 310.171875 234.449219 L 309.964844 237.121094 L 311.644531 240.183594 C 311.644531 240.183594 320.890625 246.96875 320.890625 246.96875 C 321.828125 248.230469 322.765625 249.484375 323.714844 250.75 C 324.871094 251.242188 326.015625 251.734375 327.171875 252.222656 C 328.101562 253.847656 329.039062 255.460938 329.964844 257.085938 L 332.875 258.429688 C 334.402344 258.710938 335.929688 258.996094 337.46875 259.277344 C 337.445312 260.0625 337.421875 260.839844 337.402344 261.625 C 337.402344 261.625 335.242188 264.382812 335.242188 264.382812 C 335.242188 264.382812 332.984375 267.066406 328.765625 272.070312 C 327.433594 273.933594 326.105469 275.789062 324.773438 277.652344 C 323.671875 277.992188 322.570312 278.328125 321.46875 278.679688 L 319.996094 278.886719 C 319.289062 279.726562 318.578125 280.566406 317.871094 281.40625 L 313.605469 278.066406 C 313.605469 278.066406 309.886719 278.035156 309.886719 278.035156 C 309.886719 278.035156 309.679688 274.796875 309.679688 274.796875 C 307.03125 274.449219 304.382812 274.097656 301.730469 273.75 L 301.339844 274.796875 C 299.410156 275.101562 297.476562 275.417969 295.546875 275.722656 C 294.578125 276.542969 293.617188 277.359375 292.648438 278.175781 L 289.125 280.097656 C 289.125 280.097656 281.4375 282.082031 281.4375 282.082031 C 279.625 282.714844 277.816406 283.347656 276.007812 283.96875 C 274.390625 285.496094 272.789062 287.03125 271.175781 288.558594 C 270.628906 291.425781 270.074219 294.304688 269.527344 297.175781 L 271.035156 298.40625 L 272.59375 297.773438 C 273.75 297.730469 274.914062 297.699219 276.070312 297.652344 C 276.792969 298.679688 277.511719 299.691406 278.230469 300.71875 C 278.589844 301.570312 278.949219 302.417969 279.308594 303.269531 C 279.332031 305.964844 279.355469 308.65625 279.375 311.339844 L 281.207031 311.492188 L 278.742188 316.652344 C 278.742188 316.652344 277.585938 316.878906 275.277344 317.335938 C 275.277344 317.335938 272.058594 319.050781 272.046875 319.050781 C 270.203125 320.359375 268.363281 321.667969 266.53125 322.988281 C 258.742188 324.316406 256.5625 324.6875 256.5625 324.699219 C 256.5625 324.699219 256.691406 324.675781 256.691406 324.675781 C 256.691406 324.644531 247.292969 325.746094 247.292969 325.746094 C 247.292969 325.746094 242.667969 325.59375 242.667969 325.59375 C 242.667969 325.59375 242.625 325.527344 242.003906 324.511719 L 240.085938 324.664062 C 238.339844 325.777344 236.605469 326.890625 234.859375 328.003906 C 234.402344 327.074219 233.945312 326.136719 233.476562 325.210938 C 232.210938 324.1875 230.957031 323.171875 229.691406 322.148438 C 229.691406 322.148438 229.898438 315.125 229.898438 315.125 C 228.644531 314.230469 227.402344 313.347656 226.148438 312.453125 L 224.414062 312.09375 C 222.710938 310.882812 221.011719 309.671875 219.300781 308.460938 C 217.707031 308.570312 216.113281 308.679688 214.535156 308.800781 C 214.535156 308.800781 210.085938 307.707031 210.085938 307.707031 C 210.085938 307.707031 208.394531 306.269531 205.253906 303.597656 C 205.046875 301.351562 204.828125 299.117188 204.621094 296.867188 C 202.375 294.304688 200.140625 291.742188 197.894531 289.179688 L 199.398438 288.308594 C 199.679688 286.117188 199.953125 283.925781 200.238281 281.734375 L 202.394531 278.066406 C 202.394531 278.066406 203.082031 273.75 203.082031 273.75 C 203.082031 273.75 203.019531 273.738281 200.171875 273.511719 C 196.257812 271.722656 194.140625 270.75 194.140625 270.75 C 192.351562 269.703125 190.5625 268.644531 188.765625 267.597656 C 189.210938 266.5625 189.671875 265.515625 190.117188 264.480469 C 188.679688 263.957031 187.238281 263.421875 185.800781 262.898438 C 183.902344 262.363281 182.015625 261.832031 180.117188 261.285156 C 178.339844 260.925781 176.550781 260.578125 174.773438 260.214844 C 174.773438 260.214844 171.925781 264.71875 171.925781 264.71875 C 171.925781 264.71875 169.898438 264.46875 166.105469 264 C 164.175781 263.292969 162.242188 262.582031 160.3125 261.875 L 160.640625 258.929688 C 157.359375 257.074219 154.074219 255.234375 150.792969 253.378906 C 149.398438 253.117188 148.011719 252.855469 146.617188 252.59375 C 144.882812 251.230469 143.160156 249.867188 141.425781 248.515625 C 139.375 248.265625 137.324219 248.015625 135.277344 247.761719 C 134.480469 249.386719 133.671875 251 132.875 252.625 C 136.167969 254.71875 139.464844 256.804688 142.757812 258.898438 C 141.121094 260.445312 139.472656 261.996094 137.839844 263.554688 C 137.839844 263.554688 130.640625 260.347656 130.628906 260.347656 C 129.289062 261.632812 127.945312 262.933594 126.605469 264.21875 C 124.328125 262.507812 122.046875 260.792969 119.757812 259.082031 C 118.480469 260.117188 117.214844 261.164062 115.941406 262.203125 C 114.597656 262.867188 113.257812 263.542969 111.917969 264.207031 C 111.917969 264.207031 104.261719 269.605469 104.261719 269.605469 C 104.261719 269.605469 101.808594 269.550781 97.980469 269.464844 C 96.464844 268.394531 94.949219 267.316406 93.433594 266.246094 C 91.839844 266.171875 90.25 266.082031 88.65625 266.007812 L 86.0625 268.089844 C 84.816406 267.121094 83.574219 266.148438 82.332031 265.167969 C 80.738281 264.765625 79.148438 264.371094 77.554688 263.96875 C 76.757812 264.753906 75.953125 265.550781 75.15625 266.335938 C 75.15625 266.335938 72.394531 266.398438 72.394531 266.398438 C 72.394531 266.398438 70.980469 268.417969 68.765625 271.558594 C 67.140625 271.535156 65.527344 271.515625 63.902344 271.492188 C 63.902344 271.492188 61.46875 268.582031 61.46875 268.582031 C 61.808594 267.632812 62.132812 266.695312 62.472656 265.746094 C 63.488281 263.835938 64.5 261.929688 65.527344 260.03125 C 63.757812 259.277344 61.980469 258.527344 60.214844 257.785156 C 59.355469 256.976562 58.492188 256.160156 57.632812 255.351562 C 57.632812 255.351562 57.488281 252.410156 57.488281 252.410156 C 55.863281 251.917969 54.992188 251.65625 54.992188 251.65625 C 54.992188 251.65625 54.5 250.238281 53.519531 247.390625 L 51.035156 245.308594 C 48.175781 244.394531 46.039062 243.761719 44.578125 243.335938 C 43.890625 243.140625 41.25 242.375 41.25 242.375 C 40.761719 241.230469 40.269531 240.097656 39.777344 238.953125 C 39.777344 238.953125 39.179688 232.472656 39.179688 232.472656 C 39.179688 232.472656 38.625 231.230469 37.5 228.753906 C 37.664062 226.890625 37.816406 225.035156 37.980469 223.171875 C 38.894531 222.769531 39.824219 222.375 40.738281 221.972656 C 44.121094 221.851562 47.5 221.734375 50.878906 221.613281 C 52.320312 220.007812 53.757812 218.40625 55.199219 216.8125 C 55.679688 214.949219 56.160156 213.09375 56.636719 211.230469 C 58.144531 209.476562 59.636719 207.707031 61.140625 205.953125 C 61.71875 203.792969 62.296875 201.632812 62.886719 199.476562 C 64.183594 197.535156 65.492188 195.59375 66.792969 193.652344 C 68.273438 193.988281 69.757812 194.328125 71.230469 194.675781 C 72.984375 195.996094 74.753906 197.316406 76.507812 198.636719 C 78.503906 196.933594 80.511719 195.234375 82.503906 193.53125 C 84.402344 194.65625 86.3125 195.777344 88.207031 196.890625 C 90.007812 198.546875 91.808594 200.214844 93.605469 201.875 L 99.125 196.410156 C 99.246094 195.210938 99.363281 194.011719 99.484375 192.8125 L 97.019531 192.570312 C 94.097656 189.429688 91.175781 186.289062 88.253906 183.148438 C 89.671875 181.132812 91.097656 179.105469 92.515625 177.085938 C 92.832031 175.820312 93.160156 174.566406 93.476562 173.304688 C 95.417969 173.042969 97.359375 172.78125 99.300781 172.519531 C 99.300781 172.519531 100.5625 171.796875 100.5625 171.796875 C 100.5625 171.796875 102.429688 171.710938 105.960938 171.558594 C 106.441406 169.234375 106.921875 166.914062 107.402344 164.589844 C 108.164062 162.953125 108.917969 161.308594 109.679688 159.671875 C 110.859375 157.808594 112.046875 155.953125 113.226562 154.089844 C 109.539062 151.449219 105.863281 148.808594 102.179688 146.160156 C 102.179688 146.160156 108.480469 137.21875 108.480469 137.21875 C 108.480469 137.21875 108.6875 135.953125 109.082031 133.617188 C 108.363281 132.824219 107.640625 132.015625 106.921875 131.21875 C 107.28125 130.238281 107.640625 129.257812 108 128.277344 C 105.320312 125.972656 102.636719 123.671875 99.953125 121.371094 C 102.296875 118.753906 104.632812 116.128906 106.976562 113.511719 C 105.808594 112.015625 104.644531 110.53125 103.464844 109.039062 C 103.605469 107.074219 103.75 105.101562 103.890625 103.140625 L 105.589844 100.238281 C 101.347656 96.707031 99.113281 94.839844 99.113281 94.839844 C 99.113281 94.839844 101.097656 91.480469 101.097656 91.480469 C 101.097656 91.480469 101.285156 87.335938 101.285156 87.335938 C 101.285156 87.335938 104.042969 84.035156 104.042969 84.035156 C 104.042969 84.035156 110.652344 85.898438 110.652344 85.898438 C 110.652344 85.898438 112.089844 79.289062 112.089844 79.289062 C 112.089844 79.289062 115.515625 78.144531 115.515625 78.144531 C 115.515625 78.144531 120.378906 81.6875 120.378906 81.6875 C 120.378906 81.6875 122.125 80.523438 122.125 80.523438 C 122.125 80.523438 125.601562 73.828125 125.601562 73.828125 C 125.601562 73.828125 129.148438 71.242188 129.148438 71.242188 C 129.148438 71.242188 132.460938 71.808594 132.460938 71.808594 L 136.105469 70.761719 C 136.105469 70.761719 141.503906 70.828125 141.503906 70.828125 C 141.503906 70.828125 146.484375 71.371094 146.484375 71.371094 C 146.484375 71.371094 148.632812 72.355469 150.75 73.410156 C 152.929688 74.503906 155.066406 75.691406 155.066406 75.691406 C 155.089844 75.710938 156.835938 75.199219 156.835938 75.199219 Z M 156.835938 75.199219 " fill-opacity="1" fill-rule="nonzero"/></g></svg>