<svg xmlns="http://www.w3.org/2000/svg" xmlns:xlink="http://www.w3.org/1999/xlink" width="500" zoomAndPan="magnify" viewBox="0 0 375 374.999991" height="500" preserveAspectRatio="xMidYMid meet" version="1.0"><defs><clipPath id="2b6ff9afb7"><path d="M 38 67 L 355 67 L 355 307.710938 L 38 307.710938 Z M 38 67 " clip-rule="nonzero"/></clipPath></defs><path fill="#000000" d="M 187.5 375 C 83.910156 375 0 290.507812 0 187.5 C 0 84.492188 83.910156 0 187.5 0 C 291.089844 0 375 83.910156 375 187.5 C 375 291.089844 290.507812 375 187.5 375 Z M 187.5 11.574219 C 90.277344 11.574219 11.574219 90.277344 11.574219 187.5 C 11.574219 284.722656 90.277344 363.425781 187.5 363.425781 C 284.722656 363.425781 363.425781 284.722656 363.425781 187.5 C 363.425781 90.277344 284.144531 11.574219 187.5 11.574219 Z M 187.5 11.574219 " fill-opacity="1" fill-rule="nonzero"/><g clip-path="url(#2b6ff9afb7)"><path fill="#004aad" d="M 320.445312 288.496094 L 314.105469 297.421875 C 313.707031 297.953125 312.246094 298.101562 309.726562 297.863281 C 300.871094 304.777344 294.660156 307.957031 291.089844 307.402344 C 292.671875 306.707031 289.527344 302.191406 281.636719 293.855469 C 280.359375 292.503906 279.71875 294.289062 279.730469 299.199219 L 275.878906 301.996094 C 273.34375 295.644531 269.5 294.613281 264.351562 298.902344 L 257.039062 294.925781 C 254.046875 287.8125 248.839844 282.773438 241.832031 279.007812 C 240.179688 278.117188 238.699219 279.480469 236.898438 283.859375 C 234.535156 284.738281 231.023438 284.957031 226.355469 284.515625 C 221.417969 282.160156 217.765625 279.449219 215.40625 276.390625 C 215.15625 272.386719 213.1875 269.320312 209.5 267.195312 L 188.429688 264.992188 C 181.710938 266.109375 177.71875 267.300781 176.449219 268.566406 C 175.832031 270.859375 171.167969 275.46875 162.453125 282.394531 C 164.828125 295.207031 163.449219 302.574219 158.109375 303.082031 C 153.5 303.519531 149.917969 304.1875 147.425781 306.515625 C 140.355469 303.050781 136.28125 300.082031 135.207031 297.601562 L 129.511719 296.976562 C 129.039062 295.921875 125.539062 293.210938 119.011719 288.84375 C 118.3125 284.316406 114.972656 280.054688 108.992188 276.054688 C 105.246094 277.921875 102.097656 278.382812 100.082031 276.707031 C 96.304688 273.570312 91.160156 269.0625 84.058594 263.863281 L 77.011719 251.75 C 74.894531 235.78125 74.792969 225.726562 76.699219 221.585938 C 71.789062 205.234375 70.289062 196.753906 72.199219 196.144531 C 73.808594 191.328125 77.101562 185.40625 82.085938 178.371094 L 98.703125 167.773438 C 99.746094 166.9375 99.949219 165.804688 99.230469 164.417969 C 98.300781 162.617188 97.289062 161.425781 96.28125 160.792969 C 91.816406 161.855469 89.300781 161.597656 88.734375 160.027344 C 85.464844 157.550781 82.863281 152.28125 80.933594 144.214844 C 66.355469 133.4375 58.027344 125.816406 55.949219 121.359375 C 55.015625 120.636719 53.949219 119.960938 52.765625 120.117188 C 45.605469 121.058594 41.804688 121.25 41.25 119.914062 C 39.921875 119.300781 38.910156 116.429688 38.210938 111.296875 C 37.496094 109.757812 40.425781 108.238281 47.007812 106.738281 L 43.746094 99.125 C 49.398438 95.113281 53.324219 89.976562 55.949219 83.890625 C 56.222656 83.257812 57.679688 82.8125 59.757812 81.917969 C 62.320312 80.808594 66.644531 81.144531 72.910156 83.332031 L 83.53125 75.34375 C 86.1875 73.945312 94.984375 71.097656 101.417969 73.132812 C 112.011719 70.289062 122.480469 68.847656 124.242188 67.023438 C 137.242188 74.792969 145.472656 74.050781 148.261719 70.863281 C 150.832031 71.449219 153.023438 72.449219 154.828125 73.855469 L 172.277344 92.015625 C 174.183594 91.933594 185.742188 100.730469 206.964844 118.410156 L 213.242188 130.308594 L 227.039062 135.984375 C 235.4375 145.871094 242.882812 151.609375 249.457031 152.765625 C 252.898438 153.367188 260.445312 149.171875 272.066406 140.667969 C 273.207031 139.832031 275.808594 140.003906 279.84375 141.144531 C 281.804688 137.09375 283.550781 134.589844 285.242188 134.332031 C 294.515625 132.929688 300.503906 131.671875 303.109375 129.851562 L 316.65625 132.074219 C 319.484375 132.59375 322.046875 134.328125 324.34375 137.28125 C 329.558594 136.847656 333.808594 138.210938 337.433594 140.9375 C 350.246094 150.5625 355.738281 155.476562 353.578125 156.125 C 347.550781 168.097656 344.65625 178.742188 344.886719 188.058594 C 332.078125 197.347656 321.300781 209.1875 312.554688 223.585938 C 307.066406 226.808594 304.417969 228.195312 304.613281 227.75 C 299.140625 226.121094 296.195312 225.695312 295.785156 226.476562 C 298.949219 228.902344 298.375 232.507812 294.054688 237.296875 L 298.027344 241.214844 C 295.71875 245.507812 294.21875 250.820312 293.523438 257.152344 C 294.027344 258.476562 294.886719 259.632812 296.28125 259.785156 C 304.949219 260.734375 309.113281 261.429688 308.691406 262.714844 C 312.972656 267.496094 313.90625 273.820312 311.5 281.6875 Z M 320.445312 288.496094 " fill-opacity="1" fill-rule="nonzero"/></g></svg>