<svg xmlns="http://www.w3.org/2000/svg" xmlns:xlink="http://www.w3.org/1999/xlink" width="1080" zoomAndPan="magnify" viewBox="0 0 810 809.999993" height="1080" preserveAspectRatio="xMidYMid meet" version="1.0"><defs><clipPath id="b59524e250"><path d="M 0 229.316406 L 810 229.316406 L 810 595.316406 L 0 595.316406 Z M 0 229.316406 " clip-rule="nonzero"/></clipPath><clipPath id="153e552a00"><path d="M 30.785156 266.152344 L 787.613281 266.152344 L 787.613281 563.902344 L 30.785156 563.902344 Z M 30.785156 266.152344 " clip-rule="nonzero"/></clipPath><clipPath id="cfb238791a"><path d="M 30.785156 266.152344 L 787.550781 266.152344 L 787.550781 563.886719 L 30.785156 563.886719 Z M 30.785156 266.152344 " clip-rule="nonzero"/></clipPath><clipPath id="b1474facf6"><path d="M 234 229.316406 L 810 229.316406 L 810 595.316406 L 234 595.316406 Z M 234 229.316406 " clip-rule="nonzero"/></clipPath></defs><g clip-path="url(#b59524e250)"><rect x="-81" width="972" fill="#ffffff" y="-80.999999" height="971.999992" fill-opacity="1"/><rect x="-81" width="972" fill="#000000" y="-80.999999" height="971.999992" fill-opacity="1"/></g><g clip-path="url(#153e552a00)"><path fill="#000000" d="M 30.785156 266.152344 L 787.929688 266.152344 L 787.929688 563.902344 L 30.785156 563.902344 Z M 30.785156 266.152344 " fill-opacity="1" fill-rule="nonzero"/></g><g clip-path="url(#cfb238791a)"><path stroke-linecap="butt" transform="matrix(3.014999, 0, 0, 3.015, 30.791955, 266.159303)" fill="none" stroke-linejoin="miter" d="M -0.00225503 -0.00230835 L 251.01355 -0.00230835 L 251.01355 98.748733 L -0.00225503 98.748733 Z M -0.00225503 -0.00230835 " stroke="#ffffff" stroke-width="8" stroke-opacity="1" stroke-miterlimit="4"/></g><path fill="#ffffff" d="M 156.851562 311.03125 C 171.503906 311.03125 182.933594 313.980469 191.148438 319.886719 C 199.34375 325.757812 203.457031 334.632812 203.457031 346.519531 C 203.457031 370.480469 194.507812 386.8125 176.636719 395.511719 L 176.636719 396.015625 C 197.066406 398.746094 207.289062 410.398438 207.289062 431 C 207.289062 450.441406 200.648438 465.644531 187.378906 476.601562 C 174.09375 487.53125 156.191406 492.996094 133.671875 492.996094 L 59.617188 492.996094 L 88.324219 311.03125 Z M 130.09375 347.210938 L 124.503906 382.449219 L 130.785156 382.449219 C 149.125 382.449219 158.296875 375.285156 158.296875 360.964844 C 158.296875 356.316406 156.507812 352.863281 152.957031 350.601562 C 149.441406 348.339844 143.425781 347.210938 134.929688 347.210938 Z M 112.695312 456.816406 L 123.308594 456.816406 C 136.65625 456.816406 146.0625 454.808594 151.511719 450.789062 C 156.992188 446.765625 159.742188 441.144531 159.742188 433.890625 C 159.742188 428.082031 157.636719 423.933594 153.460938 421.453125 C 149.3125 418.941406 142.152344 417.683594 131.976562 417.683594 L 118.722656 417.683594 Z M 112.695312 456.816406 " fill-opacity="1" fill-rule="nonzero"/><path fill="#ffffff" d="M 273.421875 311.03125 L 342.453125 422.269531 L 342.953125 422.269531 L 360.542969 311.03125 L 407.839844 311.03125 L 379.132812 492.996094 L 331.835938 492.996094 L 262.804688 381.503906 L 262.300781 381.503906 L 244.714844 492.996094 L 197.417969 492.996094 L 226.121094 311.03125 Z M 273.421875 311.03125 " fill-opacity="1" fill-rule="nonzero"/><g clip-path="url(#b1474facf6)"><path stroke-linecap="butt" transform="matrix(4.52547, 0, 0, 4.525471, 356.978189, 253.147565)" fill="none" stroke-linejoin="miter" d="M 24.905547 12.79496 C 28.143297 12.79496 30.666343 13.4432 32.470368 14.748313 C 34.284752 16.038752 35.194533 18.003327 35.194533 20.633405 C 35.194533 25.928089 33.223053 29.53355 29.281819 31.452377 L 29.281819 31.55682 C 33.796197 32.163629 36.051661 34.741917 36.051661 39.290822 C 36.051661 43.593724 34.586861 46.960087 31.65122 49.382141 C 28.719032 51.792975 24.763987 53.000549 19.791265 53.000549 L 3.410025 53.000549 L 9.766409 12.79496 Z M 18.982475 20.789639 L 17.757636 28.576295 L 19.138708 28.576295 C 23.192154 28.576295 25.218014 26.989788 25.218014 23.821955 C 25.218014 22.798236 24.829588 22.038646 24.048419 21.542323 C 23.268113 21.039095 21.935379 20.789639 20.051079 20.789639 Z M 15.141368 45.00587 L 17.487464 45.00587 C 20.436916 45.00587 22.515429 44.562201 23.723004 43.677452 C 24.937484 42.781481 25.544293 41.532474 25.544293 39.929568 C 25.544293 38.65294 25.079044 37.739706 24.152863 37.195046 C 23.233587 36.636575 21.651396 36.358634 19.413196 36.358634 L 16.484461 36.358634 Z M 63.093049 12.79496 L 61.697303 21.646767 L 49.275424 21.646767 L 48.210273 28.367408 L 59.990816 28.367408 L 58.613197 37.219215 L 46.81539 37.219215 L 45.697585 44.14529 L 58.130685 44.14529 L 56.735802 53.000549 L 33.861798 53.000549 L 40.215592 12.79496 Z M 86.768075 12.79496 L 85.376645 21.646767 L 72.953903 21.646767 L 71.885299 28.367408 L 83.669295 28.367408 L 82.288223 37.219215 L 70.493869 37.219215 L 69.373474 44.14529 L 81.805711 44.14529 L 80.414281 53.000549 L 57.536824 53.000549 L 63.890618 12.79496 Z M 86.768075 12.79496 " stroke="#000000" stroke-width="5.4" stroke-opacity="1" stroke-miterlimit="4"/></g><path fill="#ffffff" d="M 469.664062 311.03125 C 484.316406 311.03125 495.746094 313.980469 503.960938 319.886719 C 512.15625 325.757812 516.269531 334.632812 516.269531 346.519531 C 516.269531 370.480469 507.320312 386.8125 489.449219 395.511719 L 489.449219 396.015625 C 509.878906 398.746094 520.101562 410.398438 520.101562 431 C 520.101562 450.441406 513.460938 465.644531 500.191406 476.601562 C 486.90625 487.53125 469.003906 492.996094 446.484375 492.996094 L 372.429688 492.996094 L 401.136719 311.03125 Z M 442.90625 347.210938 L 437.316406 382.449219 L 443.597656 382.449219 C 461.9375 382.449219 471.109375 375.285156 471.109375 360.964844 C 471.109375 356.316406 469.316406 352.863281 465.769531 350.601562 C 462.25 348.339844 456.238281 347.210938 447.742188 347.210938 Z M 425.507812 456.816406 L 436.121094 456.816406 C 449.46875 456.816406 458.875 454.808594 464.324219 450.789062 C 469.804688 446.765625 472.554688 441.144531 472.554688 433.890625 C 472.554688 428.082031 470.449219 423.933594 466.273438 421.453125 C 462.125 418.941406 454.964844 417.683594 444.789062 417.683594 L 431.535156 417.683594 Z M 425.507812 456.816406 " fill-opacity="1" fill-rule="nonzero"/><path fill="#ffffff" d="M 642.449219 311.03125 L 636.167969 351.105469 L 579.953125 351.105469 L 575.113281 381.503906 L 628.441406 381.503906 L 622.222656 421.578125 L 568.832031 421.578125 L 563.808594 452.921875 L 620.027344 452.921875 L 613.746094 492.996094 L 510.230469 492.996094 L 538.933594 311.03125 Z M 642.449219 311.03125 " fill-opacity="1" fill-rule="nonzero"/><path fill="#ffffff" d="M 749.601562 311.03125 L 743.320312 351.105469 L 687.101562 351.105469 L 682.265625 381.503906 L 735.59375 381.503906 L 729.375 421.578125 L 675.984375 421.578125 L 670.957031 452.921875 L 727.175781 452.921875 L 720.894531 492.996094 L 617.378906 492.996094 L 646.085938 311.03125 Z M 749.601562 311.03125 " fill-opacity="1" fill-rule="nonzero"/></svg>