<svg xmlns="http://www.w3.org/2000/svg" xmlns:xlink="http://www.w3.org/1999/xlink" width="500" zoomAndPan="magnify" viewBox="0 0 375 374.999991" height="500" preserveAspectRatio="xMidYMid meet" version="1.0"><defs><clipPath id="f5738fcaf1"><path d="M 31.421875 63.75 L 337.421875 63.75 L 337.421875 316.5 L 31.421875 316.5 Z M 31.421875 63.75 " clip-rule="nonzero"/></clipPath></defs><path fill="#000000" d="M 187.5 375 C 83.910156 375 0 290.507812 0 187.5 C 0 84.492188 83.910156 0 187.5 0 C 291.089844 0 375 83.910156 375 187.5 C 375 291.089844 290.507812 375 187.5 375 Z M 187.5 11.574219 C 90.277344 11.574219 11.574219 90.277344 11.574219 187.5 C 11.574219 284.722656 90.277344 363.425781 187.5 363.425781 C 284.722656 363.425781 363.425781 284.722656 363.425781 187.5 C 363.425781 90.277344 284.144531 11.574219 187.5 11.574219 Z M 187.5 11.574219 " fill-opacity="1" fill-rule="nonzero"/><g clip-path="url(#f5738fcaf1)"><path stroke-linecap="round" transform="matrix(0.270094, 0, 0, 0.270094, 31.476704, 63.854629)" fill-opacity="1" fill="#0097b2" fill-rule="nonzero" stroke-linejoin="round" d="M 1046.727864 486.234661 L 1043.71965 488.244958 L 1037.703221 489.242875 L 1035.692924 492.251089 L 1033.176438 491.744899 L 1031.67233 489.242875 L 1024.643522 491.744899 L 1021.129118 488.244958 L 1016.110607 485.728471 L 1014.6065 481.722339 L 1012.596203 481.216149 L 1011.583823 479.205852 L 1000.548883 476.197638 L 998.538586 474.693531 L 995.530372 469.67502 L 999.536503 468.677102 L 1001.5468 465.654426 L 1002.05299 454.113296 L 1000.534421 448.603058 L 1001.040611 442.080439 L 999.536503 439.072225 L 995.009719 438.566035 L 992.001505 440.084605 L 990.482936 439.086688 L 990.989125 436.570201 L 990.482936 430.047582 L 992.001505 427.545558 L 997.020016 424.522881 L 1002.038528 419.50437 L 999.030314 415.498238 L 999.030314 411.983834 L 1002.544718 403.957109 L 1004.555015 401.946812 L 1004.048825 396.436573 L 1005.046742 393.920086 L 1006.044659 386.891278 L 1002.544718 380.87485 L 1002.544718 378.358363 L 997.526206 373.339852 L 992.999422 372.341934 L 986.476804 366.817233 L 984.466507 362.304912 L 981.458293 360.786342 L 979.447996 358.284318 L 974.429485 357.286401 L 970.423353 360.294615 L 965.896569 361.292532 L 960.386331 361.292532 L 957.869844 362.796639 L 955.859547 366.802771 L 954.86163 371.329555 L 953.863712 372.327472 L 950.349308 370.823365 L 947.832821 368.813068 L 946.834904 365.298663 L 943.334963 366.296581 L 942.828773 369.810985 L 937.304072 372.819199 L 935.293775 369.810985 L 933.283478 367.294498 L 929.277346 367.294498 L 923.752645 363.288366 L 923.260918 361.784259 L 919.254786 361.784259 L 915.740382 362.782177 L 914.236275 359.267772 L 907.713657 356.259558 L 905.19717 356.259558 L 906.715739 361.278069 L 905.70336 363.794556 L 905.211632 368.306878 L 902.203418 370.823365 L 901.205501 374.323306 L 902.709608 377.345983 L 898.703476 378.3439 L 895.695262 376.825331 L 891.674668 372.313009 L 887.162347 370.302712 L 886.656157 368.292415 L 881.145918 367.786225 L 879.627349 365.775928 L 875.115027 366.282118 L 871.600623 363.273904 L 869.590326 364.778011 L 866.075922 364.778011 L 866.075922 363.273904 L 869.590326 360.757417 L 869.590326 359.25331 L 867.580029 355.232716 L 868.086219 350.720395 L 864.571815 348.203908 L 861.057411 347.71218 L 857.543007 349.722477 L 853.030685 349.722477 L 854.028603 343.706049 L 853.030685 338.673075 L 851.526578 334.666944 L 846.001877 334.666944 L 842.993663 331.658729 L 839.985449 332.164919 L 836.471045 331.658729 L 833.46283 333.669026 L 831.452533 330.660812 L 820.403131 327.146408 L 817.901107 326.148491 L 815.38462 326.654681 L 807.357894 325.656763 L 802.845573 329.662895 L 800.835276 326.148491 L 794.312658 325.150574 L 789.785874 323.140277 L 788.281767 321.12998 L 787.775577 317.123848 L 781.252958 316.617658 L 777.753017 312.105337 L 775.74272 321.12998 L 781.759148 322.634087 L 781.759148 326.654681 L 784.767362 327.652598 L 785.76528 331.167002 L 784.767362 335.173133 L 782.757065 338.181348 L 782.757065 341.189562 L 779.242661 342.693669 L 778.750934 344.703966 L 774.22415 344.703966 L 772.213853 348.72456 L 774.73034 349.722477 L 777.738554 357.243013 L 777.738554 361.769797 L 775.728257 363.780094 L 776.234447 371.806819 L 777.738554 374.323306 L 778.244744 377.33152 L 776.234447 379.833545 L 772.720043 378.835628 L 769.711829 382.350032 L 766.197425 381.843842 L 761.178913 387.368543 L 759.674806 393.891161 L 762.176831 396.899375 L 761.685103 400.905507 L 760.166534 404.419911 L 760.166534 409.944612 L 755.654212 411.448719 L 752.645998 409.438422 L 748.625404 409.438422 L 746.615107 407.934315 L 743.115165 410.436339 L 741.596596 408.932232 L 741.596596 405.924018 L 739.094571 404.405448 L 736.578085 401.397234 L 733.06368 400.399317 L 732.065763 398.38902 L 728.059632 395.380806 L 725.051418 396.884913 L 723.041121 398.89521 L 716.012312 401.411697 L 716.012312 403.913721 L 721.522551 404.926101 L 721.522551 407.934315 L 719.512254 407.428125 L 717.010229 409.438422 L 714.002015 417.971338 L 714.999932 419.475445 L 714.493743 422.483659 L 712.483446 425.998063 L 714.002015 428.51455 L 713.495825 432.520681 L 711.485528 432.520681 L 709.981421 430.004195 L 707.464934 430.510384 L 706.973207 434.516516 L 707.464934 437.52473 L 702.446423 436.020623 L 701.954696 441.039134 L 702.952613 442.037051 L 702.952613 447.561753 L 709.981421 447.561753 L 709.475231 452.580264 L 714.999932 452.074074 L 712.989635 458.104965 L 715.506122 458.596692 L 719.006064 458.596692 L 719.512254 461.604907 L 721.522551 464.121393 L 725.022492 465.625501 L 727.538979 468.141987 L 727.032789 471.150202 L 722.520468 469.646095 L 712.989635 473.146036 L 710.979338 478.670737 L 707.971124 484.195438 L 707.971124 486.205735 L 705.960827 489.705677 L 700.942316 490.211867 L 698.425829 492.222164 L 697.934102 496.734485 L 699.944399 500.248889 L 700.436126 504.775673 L 697.934102 510.285912 L 695.417615 509.794184 L 687.882617 513.800316 L 686.37851 512.296209 L 685.87232 509.779722 L 679.855891 510.777639 L 678.351784 517.300257 L 680.362081 518.804365 L 680.362081 521.320851 L 676.847677 519.816744 L 676.35595 522.318769 L 677.860057 525.833173 L 674.851843 526.83109 L 670.325059 526.3249 L 669.833331 528.335197 L 673.839463 529.333114 L 673.333273 533.859898 L 669.327141 537.374302 L 670.325059 540.874244 L 673.839463 541.886624 L 675.84976 545.386565 L 673.333273 547.903052 L 669.327141 545.386565 L 667.823034 546.384483 L 668.314762 549.407159 L 665.306547 551.402994 L 661.792143 552.415374 L 657.786012 549.407159 L 657.786012 545.386565 L 653.77988 546.384483 L 647.763452 545.386565 L 648.255179 543.376268 L 651.769583 540.874244 L 651.769583 536.85365 L 653.77988 535.349543 L 652.781963 532.341329 L 648.775832 531.835139 L 647.763452 527.829007 L 646.259345 524.820793 L 644.755238 527.829007 L 642.744941 524.314603 L 640.734644 526.3249 L 630.683159 530.851684 L 629.685241 534.366088 L 629.193514 539.876327 L 626.677027 544.403111 L 624.66673 544.894838 L 626.1853 549.913349 L 622.164706 549.421622 L 619.156492 553.427753 L 617.146195 559.950372 L 614.13798 559.950372 L 611.129766 561.960669 L 613.63179 565.9668 L 612.633873 567.977097 L 605.605065 567.977097 L 604.607148 564.968883 L 602.105123 563.464776 L 601.092744 566.47299 L 597.592802 565.9668 L 596.594885 562.958586 L 591.561911 563.464776 L 590.057804 567.470907 L 587.04959 572.995608 L 591.561911 573.993526 L 593.572208 576.003823 L 591.070184 578.01412 L 591.070184 584.536738 L 586.5434 585.028465 L 586.5434 592.057274 L 586.051673 599.086082 L 586.051673 602.094296 L 584.041376 602.094296 L 581.524889 605.6087 L 577.518757 604.610783 L 571.502329 606.62108 L 570.504411 609.123104 L 566.990007 607.618997 L 565.471438 604.610783 L 561.971496 604.610783 L 561.465306 610.627211 L 565.471438 611.625129 L 568.494114 615.139533 L 566.975545 618.653937 L 564.965248 620.664234 L 561.957034 621.662151 L 559.455009 621.155961 L 558.948819 626.174472 L 555.434415 632.697091 L 555.434415 636.211495 L 551.428284 635.213578 L 550.430367 630.686794 L 546.915962 629.182687 L 546.424235 625.176555 L 543.401558 625.176555 L 542.909831 629.182687 L 540.899534 632.190901 L 538.383047 632.697091 L 538.383047 627.664117 L 537.38513 624.164175 L 532.366619 624.655903 L 532.366619 631.178521 L 527.348107 631.178521 L 526.841917 637.701139 L 527.854297 638.699057 L 522.329596 639.696974 L 519.321382 641.215544 L 517.311085 647.231972 L 505.769955 648.229889 L 507.274062 655.764887 L 509.790549 656.762805 L 510.788467 659.771019 L 507.780252 660.277209 L 507.780252 663.285423 L 510.788467 662.779233 L 511.786384 664.28334 L 508.27198 666.293637 L 505.769955 666.293637 L 506.261683 671.818338 L 511.786384 671.326611 L 510.282277 679.845064 L 516.298705 680.857444 L 516.804895 683.865658 L 514.288408 685.369765 L 512.784301 689.375896 L 508.763707 689.375896 L 507.76579 683.865658 L 503.253468 684.357385 L 503.745196 686.367682 L 498.234957 686.367682 L 497.728767 682.867741 L 491.712339 681.855361 L 485.681448 682.867741 L 484.177341 683.865658 L 485.175258 688.884169 L 482.673234 690.894466 L 482.673234 684.863575 L 479.158829 683.359468 L 477.148532 681.349171 L 474.632045 681.855361 L 471.132104 686.367682 L 469.121807 683.359468 L 462.599189 683.359468 L 460.588892 685.369765 L 456.58276 685.369765 L 451.058059 687.380062 L 448.049845 684.371848 L 445.533358 683.373931 L 446.039548 675.838932 L 441.021037 677.849229 L 440.514847 675.347205 L 438.012822 673.336908 L 436.002525 673.828635 L 434.483956 680.857444 L 430.477824 679.353337 L 428.973717 675.347205 L 424.446933 673.336908 L 420.440802 675.347205 L 417.924315 674.841015 L 416.420208 671.326611 L 416.420208 668.824587 L 413.903721 667.826669 L 410.403779 665.310183 L 408.88521 668.318397 L 407.381102 673.336908 L 407.381102 677.863692 L 402.362591 678.861609 L 403.360508 683.373931 L 407.36664 684.8925 L 407.36664 686.902797 L 406.368723 690.417201 L 408.88521 691.921308 L 409.883127 694.929523 L 413.383068 694.929523 L 414.380985 703.462438 L 409.362474 707.46857 L 409.868664 710.982974 L 412.876878 714.989105 L 412.876878 717.505592 L 415.393365 717.505592 L 416.391283 723.52202 L 411.864499 727.528152 L 412.862416 729.538449 L 415.378903 729.046722 L 414.872713 736.567257 L 416.391283 739.083744 L 411.372771 741.094041 L 410.374854 739.083744 L 406.86045 738.577554 L 406.86045 733.559043 L 401.335749 733.067316 L 401.335749 739.083744 L 395.811048 739.083744 L 393.815213 741.094041 L 390.792536 742.091958 L 390.300809 739.083744 L 387.292595 736.07553 L 383.778191 737.073447 L 382.274084 739.083744 L 377.24111 737.565174 L 374.232896 738.577554 L 370.226764 740.587851 L 362.200039 740.587851 L 362.200039 747.096007 L 363.197956 748.093924 L 361.693849 752.114518 L 359.683552 754.124815 L 356.169148 753.618625 L 354.665041 756.62684 L 348.142422 756.62684 L 349.646529 752.620708 L 346.638315 753.618625 L 342.111531 752.114518 L 342.111531 749.106304 L 337.59921 747.096007 L 336.095103 745.08571 L 336.095103 741.571306 L 329.572484 742.569223 L 323.541593 741.571306 L 321.039569 744.087793 L 318.523082 743.075413 L 316.512785 744.087793 L 314.502488 742.569223 L 312.998381 744.57952 L 316.512785 747.587734 L 318.523082 747.587734 L 318.016892 751.593866 L 316.006595 751.102138 L 310.988084 754.616543 L 311.494274 764.653565 L 312.492191 767.155589 L 302.961358 766.663862 L 302.455169 768.167969 L 292.418146 770.178266 L 286.893445 774.70505 L 281.383206 774.70505 L 281.383206 780.721479 L 277.868802 782.225586 L 276.364695 786.24618 L 280.877016 789.254394 L 276.870885 791.264691 L 273.862671 790.758501 L 273.356481 793.766715 L 270.348267 795.777012 L 264.331838 798.293499 L 262.321541 797.295582 L 263.319458 792.768798 L 261.309161 792.277071 L 261.309161 786.75237 L 253.774163 787.244097 L 251.272139 782.731776 L 249.261842 783.729693 L 249.261842 786.737907 L 250.259759 790.744038 L 246.253628 791.756418 L 244.243331 793.766715 L 240.728927 794.258443 L 239.731009 797.266657 L 239.731009 800.781061 L 238.733092 801.778978 L 231.198094 797.772847 L 227.68369 801.287251 L 223.677558 799.276954 L 223.677558 802.776895 L 225.181666 804.787192 L 221.681724 805.78511 L 222.679641 809.299514 L 225.181666 805.293382 L 226.700235 805.293382 L 226.194045 809.299514 L 229.708449 812.813918 L 232.224936 812.307728 L 232.716664 819.842726 L 235.724878 819.336536 L 236.231068 821.346833 L 233.714581 824.861237 L 233.222854 821.346833 L 231.704284 821.853023 L 230.200177 826.871534 L 231.704284 828.375641 L 233.714581 835.40445 L 230.706367 837.414747 L 231.704284 839.425044 L 235.218688 836.416829 L 237.735175 835.418912 L 239.239282 837.935399 L 243.245413 836.937482 L 243.751603 840.437423 L 252.284519 841.955993 L 255.292733 845.455935 L 254.786543 846.974504 L 255.78446 850.474446 L 253.774163 851.486826 L 252.776246 856.997064 L 253.774163 861.017658 L 252.776246 865.02379 L 249.261842 862.507303 L 245.255711 861.509386 L 241.249579 864.025873 L 236.722795 868.538194 L 239.239282 872.052598 L 242.247496 870.042301 L 246.253628 869.044384 L 249.768032 870.548491 L 249.261842 874.062895 L 247.251545 877.577299 L 247.251545 879.587596 L 245.241248 884.099918 L 239.224819 891.634916 L 240.222737 895.134857 L 236.216605 895.134857 L 234.206308 897.145154 L 234.206308 899.155451 L 238.733092 899.155451 L 236.216605 904.188425 L 237.214522 906.184259 L 235.710415 909.698664 L 233.700118 911.217233 L 230.691904 910.204853 L 230.185714 912.215151 L 225.673393 914.731637 L 223.156906 912.72134 L 219.150775 913.719258 L 217.632205 911.708961 L 218.644585 908.700746 L 215.621908 908.700746 L 214.623991 911.708961 L 212.613694 912.706878 L 208.607562 913.213068 L 207.609645 915.223365 L 204.095241 916.727472 L 205.093158 920.241876 L 204.095241 923.25009 L 199.07673 924.754197 L 203.082861 927.270684 L 196.574705 930.785088 L 191.050004 931.276816 L 189.531434 933.793303 L 186.031493 933.287113 L 182.025361 930.278898 L 181.519172 928.268601 L 182.025361 925.766577 L 181.519172 921.745983 L 179.508875 920.748066 L 180.015064 918.737769 L 178.004767 914.225448 L 172.971794 914.225448 L 168.965662 912.706878 L 169.963579 910.204853 L 166.955365 906.184259 L 163.455424 911.217233 L 162.443044 914.717175 L 160.938937 914.225448 L 156.412153 916.727472 L 154.908046 915.729555 L 150.901914 915.729555 L 149.903997 917.248124 L 145.377213 917.248124 L 143.366916 916.235745 L 141.356619 916.741934 L 137.842215 913.73372 L 139.360785 911.723423 L 137.350488 905.706995 L 134.342273 898.171997 L 132.331976 897.174079 L 129.815489 892.155568 L 128.817572 890.145271 L 123.799061 887.628784 L 118.27436 886.124677 L 117.782633 882.610273 L 115.772336 880.108249 L 115.772336 875.581465 L 114.253766 872.067061 L 110.753824 869.058846 L 112.257931 867.048549 L 109.741444 855.015692 L 108.237337 848.984801 L 105.229123 841.955993 L 103.725016 834.927185 L 102.206446 831.918971 L 102.712636 829.908674 L 101.194067 825.902542 L 98.692042 825.396352 L 99.689959 821.896411 L 98.17139 820.377841 L 96.667283 813.349033 L 93.659068 807.332604 L 92.661151 803.8182 L 90.650854 799.812069 L 94.165258 796.803855 L 95.669365 801.316176 L 96.667283 801.316176 L 95.163176 795.805937 L 92.646689 793.79564 L 91.648771 791.279153 L 94.656986 790.787426 L 96.161093 788.270939 L 93.659068 785.262725 L 93.659068 778.740107 L 90.144664 772.723678 L 90.144664 767.198977 L 91.663234 761.674276 L 88.65502 760.170169 L 88.14883 752.635171 L 89.652937 749.626956 L 86.644723 747.616659 L 87.64264 746.112552 L 86.644723 741.585768 L 88.163292 740.081661 L 88.65502 736.07553 L 86.152995 735.077613 L 87.150913 732.561126 L 86.152995 730.550829 L 83.636509 731.057019 L 83.636509 727.036425 L 86.152995 729.046722 L 87.657103 725.54678 L 87.165375 718.503509 L 85.646806 716.507675 L 82.132401 703.954165 L 78.63246 695.92744 L 76.115973 695.435713 L 75.624246 692.427498 L 78.63246 690.417201 L 80.136567 692.919226 L 81.655137 688.406904 L 78.140733 686.396607 L 78.63246 683.373931 L 76.622163 678.861609 L 72.616031 678.355419 L 71.111924 675.853395 L 73.613949 674.855478 L 73.613949 668.332859 L 74.611866 666.81429 L 73.107759 660.797861 L 67.583058 655.287623 L 67.583058 652.264946 L 70.099544 652.264946 L 70.591272 648.765004 L 68.089247 647.246435 L 65.572761 642.227923 L 66.58514 640.217626 L 65.066571 638.207329 L 63.562464 634.707388 L 66.570678 631.684711 L 65.572761 627.67858 L 63.562464 620.649771 L 61.552167 617.135367 L 59.54187 609.614832 L 58.0233 606.100428 L 55.521276 604.090131 L 55.521276 599.563347 L 52.006871 598.059239 L 52.006871 594.544835 L 53.525441 593.040728 L 51.008954 591.536621 L 49.504847 586.503647 L 52.513061 585.50573 L 46.48217 582.005789 L 48.00074 578.983112 L 47.002823 575.48317 L 45.484253 574.485253 L 43.980146 570.970849 L 45.484253 569.972932 L 46.48217 566.964717 L 45.484253 561.946206 L 41.984311 558.431802 L 40.465742 557.433885 L 39.467825 548.900969 L 42.982229 549.407159 L 44.486336 553.919481 L 48.492467 553.919481 L 56.027465 556.927695 L 59.03568 556.435968 L 56.533655 553.413291 L 57.531573 550.911266 L 53.004789 551.402994 L 49.504847 548.900969 L 46.98836 549.407159 L 44.471873 546.384483 L 41.463659 541.872161 L 39.453362 539.355674 L 36.445148 538.863947 L 37.963717 535.855733 L 37.457528 533.339246 L 35.447231 532.341329 L 34.941041 526.3249 L 33.436934 523.808413 L 35.95342 514.277581 L 38.455445 512.267284 L 36.951338 508.75288 L 33.436934 501.232344 L 32.439016 497.71794 L 30.428719 497.226213 L 28.418422 489.185024 L 29.41634 485.685083 L 29.922529 480.160382 L 29.41634 475.141871 L 31.426637 473.623301 L 34.434851 473.623301 L 36.445148 475.141871 L 40.451279 470.123359 L 42.461576 474.129491 L 44.471873 475.633598 L 45.990443 472.625384 L 44.992526 465.104848 L 40.465742 467.606872 L 37.963717 466.608955 L 35.447231 461.590444 L 35.447231 459.073957 L 37.457528 458.07604 L 42.476039 458.07604 L 42.982229 456.571933 L 39.974014 452.565801 L 41.984311 449.051397 L 44.486336 450.555504 L 48.492467 449.557587 L 50.502764 448.05348 L 48.492467 443.526696 L 48.492467 441.024672 L 46.98836 436.497888 L 42.982229 436.497888 L 41.984311 441.024672 L 36.951338 445.030803 L 28.924612 444.524613 L 26.914315 451.553421 L 26.914315 455.574015 L 23.906101 454.576098 L 20.897887 449.543124 L 22.401994 448.039017 L 22.401994 444.524613 L 25.916398 440.012292 L 23.906101 439.014375 L 24.412291 431.479377 L 23.414374 426.967055 L 18.88759 423.452651 L 18.3814 421.442354 L 20.391697 419.432057 L 17.889673 416.91557 L 17.383483 412.909439 L 18.3814 408.397117 L 18.3814 400.862119 L 20.391697 396.855988 L 14.881458 390.333369 L 15.373186 384.808668 L 12.871161 378.79224 L 14.375268 376.275753 L 17.889673 373.773729 L 12.364971 369.753135 L 10.860864 368.249027 L 9.342295 361.726409 L 8.850567 359.224385 L 11.352592 357.705815 L 10.860864 354.205874 L 8.850567 352.195576 L 7.85265 345.672958 L 8.344377 342.664744 L 5.336163 336.142126 L 4.844436 329.113317 L 4.338246 326.59683 L 0.332114 324.094806 L 0.332114 320.074212 L 2.834139 321.086592 L 4.352708 319.076295 L 4.352708 315.055701 L 3.846519 311.049569 L 2.342411 309.039272 L 5.350626 305.524868 L 9.356757 303.022844 L 9.862947 301.012547 L 8.86503 293.477549 L 7.85265 289.471417 L 10.369137 287.46112 L 12.379434 282.442609 L 11.873244 279.434395 L 18.902052 280.432312 L 20.912349 277.424098 L 24.426753 276.426181 L 25.424671 272.405587 L 27.434968 268.905645 L 30.443182 268.905645 L 32.453479 266.389158 L 38.48437 266.895348 L 43.994608 268.399455 L 44.992526 272.926239 L 46.004906 273.417966 L 46.496633 274.415884 L 46.004906 275.413801 L 46.004906 276.426181 L 44.486336 280.432312 L 46.004906 282.934336 L 48.50693 281.936419 L 49.01312 280.432312 L 49.01312 279.926122 L 50.517227 279.434395 L 50.517227 280.432312 L 49.51931 282.934336 L 54.537821 288.965227 L 56.041928 289.456955 L 56.041928 284.944633 L 60.062522 285.436361 L 62.564546 286.434278 L 63.070736 286.940468 L 63.562464 286.940468 L 65.081033 287.938385 L 65.572761 287.938385 L 67.09133 286.940468 L 68.089247 287.938385 L 71.603652 289.948682 L 72.095379 290.946599 L 73.613949 291.452789 L 75.624246 289.934219 L 75.118056 287.923922 L 77.634543 285.913625 L 78.12627 283.903328 L 77.634543 281.401304 L 80.642757 280.403387 L 84.142698 280.403387 L 85.155078 278.884817 L 88.65502 276.87452 L 88.65502 270.858092 L 90.665317 268.847795 L 99.704422 270.858092 L 106.73323 269.860175 L 105.735313 261.833449 L 106.73323 258.825235 L 108.237337 257.812855 L 106.73323 252.302616 L 106.73323 249.78613 L 105.214661 243.263511 L 101.714719 244.782081 L 102.712636 240.775949 L 106.212578 238.765652 L 109.726982 230.724464 L 113.733113 226.718333 L 113.241386 224.216309 L 116.741328 220.195715 L 114.239303 219.703987 L 114.731031 216.695773 L 114.239303 213.673096 L 108.714602 212.168989 L 106.704305 207.656668 L 103.696091 205.140181 L 103.696091 203.636074 L 108.714602 202.117504 L 110.724899 197.605183 L 111.231089 194.596969 L 114.239303 194.090779 L 116.2496 198.6031 L 115.251683 200.12167 L 116.75579 203.636074 L 120.761922 200.613397 L 122.772219 201.119587 L 125.288706 204.633991 L 129.294837 204.633991 L 133.821621 207.642205 L 135.831918 214.671013 L 139.838049 216.68131 L 144.364833 214.671013 L 149.383345 215.162741 L 150.887452 216.175121 L 156.412153 211.156609 L 158.914177 211.156609 L 164.438878 208.133933 L 164.438878 203.115421 L 163.932688 200.613397 L 161.430664 200.613397 L 160.924474 197.605183 L 163.932688 196.592803 L 166.955365 197.605183 L 168.459472 193.584589 L 170.469769 192.080482 L 174.475901 193.078399 L 178.482032 190.576375 L 177.484115 186.55578 L 177.484115 180.539352 L 177.990305 176.027031 L 175.980008 175.014651 L 175.980008 169.504412 L 173.969711 164.977628 L 171.453224 162.475604 L 172.451141 154.940606 L 164.424416 153.436499 L 160.418284 152.930309 L 158.914177 149.415905 L 155.8915 149.922095 L 153.389476 146.91388 L 150.872989 146.91388 L 149.875072 144.397394 L 150.381262 140.391262 L 149.383345 137.383048 L 145.36275 135.864478 L 143.352453 137.874775 L 138.333942 134.866561 L 134.327811 134.866561 L 132.317514 129.84805 L 128.80311 129.84805 L 128.80311 127.837753 L 131.319597 126.333646 L 133.329894 129.34186 L 135.831918 129.833587 L 135.340191 132.856264 L 141.862809 130.339777 L 146.37513 130.339777 L 149.383345 132.350074 L 150.901914 130.339777 L 149.903997 127.82329 L 155.414236 128.32948 L 157.424533 125.812993 L 160.938937 127.331563 L 160.938937 119.796565 L 162.949234 116.78835 L 162.443044 113.273946 L 165.957448 112.782219 L 170.484232 113.780136 L 176.50066 110.771922 L 178.510957 108.761625 L 179.508875 101.732817 L 179.508875 97.206033 L 180.506792 94.704009 L 183.023279 94.197819 L 187.02941 91.695794 L 192.554111 89.685497 L 193.552028 85.158713 L 195.056136 81.644309 L 196.574705 85.158713 L 202.084944 86.156631 L 205.093158 84.652523 L 207.609645 85.650441 L 211.124049 83.640144 L 216.14256 85.144251 L 221.652799 84.146334 L 223.171369 82.642226 L 227.68369 81.644309 L 230.691904 79.634012 L 231.704284 73.111394 L 228.681607 72.113477 L 228.18988 69.105262 L 225.673393 70.10318 L 222.665179 73.603121 L 220.654882 73.603121 L 218.152857 71.592824 L 214.132263 74.615501 L 211.124049 70.088717 L 204.095241 70.594907 L 195.070598 70.088717 L 192.062384 71.592824 L 189.05417 71.101097 L 186.031493 72.605204 L 183.529469 72.605204 L 182.025361 75.121691 L 176.992388 77.131988 L 176.992388 75.613418 L 166.463638 79.634012 L 164.945068 77.117525 L 162.934771 71.101097 L 161.430664 64.578479 L 158.914177 63.580561 L 156.412153 60.572347 L 157.91626 59.053777 L 161.922391 58.05586 L 164.438878 59.053777 L 166.449175 58.05586 L 169.963579 57.564133 L 171.467686 54.049729 L 171.467686 49.031217 L 170.469769 47.512648 L 164.453341 43.000326 L 162.443044 39.992112 L 163.947151 38.473543 L 161.936854 32.963304 L 159.43483 30.953007 L 163.947151 28.94271 L 168.965662 28.94271 L 171.973876 26.426223 L 174.982091 25.934496 L 182.517089 21.407712 L 188.533517 18.905687 L 192.047921 16.389201 L 205.599348 11.876879 L 209.113752 12.874796 L 213.119883 15.883011 L 225.65893 14.364441 L 227.163037 9.85212 L 233.193928 8.33355 L 237.70625 4.327419 L 238.704167 1.825394 L 245.226785 0.306824 L 246.745355 2.317122 L 246.239165 7.335633 L 247.743272 9.85212 L 250.259759 9.85212 L 253.267973 11.862417 L 256.276188 14.870631 L 257.794757 18.385035 L 256.782378 21.884977 L 255.78446 31.415809 L 254.786543 33.426106 L 255.292733 37.95289 L 256.79684 39.456997 L 255.798923 44.981698 L 257.80922 46.485805 L 261.323624 46.485805 L 262.827731 51.012589 L 265.835945 51.504317 L 266.342135 54.526993 L 275.872968 56.031101 L 280.891479 59.039315 L 284.897611 60.543422 L 295.440823 62.553719 L 298.955227 62.553719 L 304.465466 59.545505 L 309.483977 59.545505 L 312.998381 62.553719 L 320.533379 64.564016 L 324.539511 67.080503 L 325.537428 68.07842 L 331.062129 69.076337 L 335.06826 76.611335 L 337.584747 83.133954 L 340.592961 86.142168 L 348.619687 89.656572 L 353.132008 92.158596 L 354.650578 91.160679 L 357.658792 92.664786 L 364.181411 91.666869 L 364.673138 94.183356 L 371.701946 94.675083 L 372.714326 93.170976 L 375.72254 95.673001 L 387.26367 94.675083 L 394.784205 95.673001 L 398.298609 97.683298 L 402.825393 96.68538 L 404.3295 94.675083 L 407.843905 94.675083 L 409.348012 96.193653 L 415.36444 96.68538 L 419.891224 94.675083 L 425.401463 94.675083 L 427.41176 95.673001 L 432.936461 95.181273 L 437.463245 96.17919 L 441.469376 95.673001 L 444.98378 93.662704 L 448.989912 95.181273 L 456.01872 94.675083 L 458.029017 97.19157 L 465.057825 98.695677 L 467.574312 100.705974 L 474.082468 97.69776 L 475.094848 99.708057 L 478.103062 108.7327 L 480.113359 110.25127 L 482.123656 114.257401 L 480.113359 118.263532 L 483.121573 119.782102 L 483.121573 127.3171 L 477.596872 126.30472 L 476.092765 128.315018 L 479.592706 131.829422 L 479.100979 133.839719 L 483.6133 136.847933 L 485.623597 139.36442 L 497.164727 138.85823 L 499.175024 141.374717 L 510.224426 140.868527 L 512.234723 141.374717 L 516.747045 138.85823 L 516.747045 136.847933 L 519.755259 136.847933 L 522.763473 135.850016 L 523.269663 132.335612 L 525.771687 130.325315 L 526.784067 124.815076 L 527.781984 123.296506 L 532.800496 124.815076 L 537.312817 122.298589 L 545.845732 124.308886 L 547.364302 122.298589 L 547.364302 118.784185 L 548.868409 116.282161 L 550.878706 116.282161 L 551.384896 110.757459 L 546.351922 104.234841 L 546.858112 102.730734 L 552.382813 98.20395 L 560.915729 92.187522 L 562.419836 87.16901 L 567.944537 83.654606 L 568.942454 80.154665 L 564.92186 75.627881 L 568.436264 73.617584 L 567.438347 69.611452 L 569.448644 64.592941 L 574.973345 65.084668 L 577.475369 62.076454 L 583.000071 64.086751 L 597.549414 52.053894 L 606.08233 48.0333 L 607.080247 46.023003 L 610.594651 46.529193 L 614.600783 45.531276 L 618.115187 47.035383 L 623.625425 46.037466 L 623.133698 48.553953 L 626.141912 50.05806 L 628.152209 49.566333 L 628.643937 46.543656 L 633.17072 47.049846 L 634.674828 45.039549 L 637.191314 44.041631 L 635.672745 40.527227 L 641.703636 41.033417 L 644.20566 40.0355 L 652.738575 41.033417 L 659.767384 40.0355 L 662.283871 39.02312 L 663.281788 41.033417 L 665.783812 42.045797 L 672.306431 49.074605 L 674.316728 54.093116 L 676.327025 66.125973 L 676.327025 69.640377 L 678.843511 69.640377 L 681.345536 72.648592 L 678.843511 74.658889 L 675.835297 74.658889 L 670.310596 72.648592 L 666.796192 70.638295 L 660.779764 70.638295 L 658.263277 72.156864 L 655.761252 72.648592 L 655.761252 76.654723 L 658.263277 80.675317 L 657.771549 82.685614 L 662.283871 85.187638 L 662.283871 88.195853 L 663.80244 91.204067 L 664.800358 96.728768 L 673.333273 96.237041 L 674.83738 97.741148 L 680.362081 98.739065 L 680.362081 95.224661 L 686.37851 94.732934 L 688.894997 95.224661 L 689.892914 97.741148 L 694.405235 96.743231 L 694.405235 99.751445 L 699.423746 98.753528 L 700.436126 96.237041 L 706.944282 95.239124 L 707.450472 91.724719 L 709.952496 92.230909 L 716.475114 95.239124 L 721.493626 96.743231 L 726.512137 95.745313 L 727.018327 93.735016 L 732.543028 93.243289 L 735.045052 91.232992 L 738.053267 90.726802 L 741.075943 88.716505 L 744.084158 87.718588 L 758.633501 79.185673 L 759.631419 76.683648 L 758.633501 74.673351 L 758.633501 71.158947 L 760.137608 70.16103 L 764.664392 71.158947 L 768.164334 69.14865 L 772.184928 68.656923 L 772.184928 65.142519 L 778.693084 67.644543 L 781.209571 65.634246 L 784.723975 67.152816 L 787.225999 64.636329 L 786.228082 62.134304 L 790.754866 62.626032 L 793.25689 63.623949 L 791.752783 67.644543 L 793.25689 69.65484 L 795.267187 78.173293 L 801.283616 78.173293 L 804.79802 74.673351 L 808.804151 75.165079 L 811.812365 76.683648 L 815.32677 80.68978 L 818.334984 80.68978 L 820.345281 82.193887 L 822.861768 81.19597 L 825.869982 82.193887 L 828.878196 81.70216 L 834.402897 84.204184 L 836.413194 82.700077 L 837.917301 79.691863 L 839.927598 80.18359 L 841.446168 83.697994 L 842.950275 80.68978 L 850.977001 80.18359 L 851.974918 79.691863 L 856.993429 81.19597 L 858.005809 78.693945 L 863.02432 80.704242 L 863.516047 76.177458 L 862.01194 75.179541 L 860.493371 69.65484 L 860.493371 65.142519 L 864.513965 65.142519 L 869.026286 61.628115 L 871.542773 61.628115 L 874.044797 64.144601 L 876.561284 63.146684 L 886.598307 62.640494 L 886.106579 61.136387 L 890.112711 60.124007 L 892.123008 58.11371 L 892.614735 55.105496 L 902.145568 56.624066 L 903.664137 53.615852 L 902.66622 52.097282 L 903.157948 49.089068 L 904.676517 47.078771 L 907.684731 46.587043 L 911.690863 50.086985 L 926.746397 53.095199 L 929.248421 50.593175 L 933.254552 52.097282 L 935.264849 51.099365 L 939.791633 53.109662 L 942.799848 60.13847 L 940.789551 62.148767 L 941.787468 65.663171 L 946.805979 69.163113 L 946.314252 72.185789 L 949.322466 71.6796 L 951.82449 72.677517 L 956.351274 70.66722 L 961.875975 70.175492 L 962.873892 67.659006 L 966.373834 67.152816 L 967.892404 65.648709 L 970.394428 65.648709 L 973.402642 63.638412 L 981.44383 67.152816 L 984.943772 70.16103 L 985.956152 72.171327 L 990.468473 74.181624 L 994.995257 75.179541 L 998.495198 75.179541 L 1000.013768 71.17341 L 1006.030197 70.66722 L 1009.038411 73.675434 L 1013.565195 70.66722 L 1018.583706 70.66722 L 1022.589837 66.154898 L 1025.106324 65.156981 L 1026.104242 62.640494 L 1029.604183 63.638412 L 1035.635074 59.12609 L 1038.137098 59.12609 L 1040.147395 61.136387 L 1045.672097 61.136387 L 1050.690608 67.644543 L 1053.698822 68.150733 L 1056.215309 73.169244 L 1060.72763 75.685731 L 1061.23382 80.198052 L 1064.733762 84.204184 L 1066.252331 88.224778 L 1063.244117 92.737099 L 1064.748224 96.743231 L 1069.275008 97.75561 L 1070.779115 97.75561 L 1071.285305 93.228827 L 1075.291437 94.226744 L 1081.307865 95.224661 L 1083.824352 98.232875 L 1087.324294 99.751445 L 1086.832566 102.253469 L 1089.840781 102.253469 L 1091.344888 104.769956 L 1094.859292 105.767873 L 1099.877803 103.757576 L 1102.39429 106.765791 L 1102.39429 108.776088 L 1099.877803 109.774005 L 1097.867506 115.298706 L 1092.848995 119.304837 L 1088.336673 120.823407 L 1086.818104 122.327514 L 1083.3037 123.325431 L 1081.293403 122.833704 L 1079.789296 125.841918 L 1075.276974 127.346025 L 1072.760487 127.346025 L 1069.752273 137.889238 L 1071.25638 145.424236 L 1071.25638 147.92626 L 1068.248166 151.440664 L 1070.258463 153.942689 L 1070.258463 156.965366 L 1072.77495 162.981794 L 1083.3037 162.475604 L 1085.313997 168.998222 L 1085.313997 175.520841 L 1086.326376 179.035245 L 1084.316079 183.041376 L 1084.807807 187.047508 L 1086.326376 189.563995 L 1086.818104 195.074233 L 1088.828401 197.08453 L 1089.334591 199.601017 L 1081.293403 202.103042 L 1077.287271 205.617446 L 1076.289354 208.62566 L 1078.805841 213.152444 L 1081.307865 213.644171 L 1085.834649 211.633874 L 1086.832566 210.129767 L 1089.334591 209.13185 L 1095.365482 210.635957 L 1093.846912 212.646254 L 1094.844829 216.160658 L 1093.846912 217.664765 L 1093.846912 221.179169 L 1092.848995 231.722382 L 1091.851078 233.732679 L 1092.848995 235.742976 L 1090.838698 238.75119 L 1090.34697 241.759404 L 1092.848995 244.275891 L 1094.859292 251.796427 L 1084.316079 254.312913 L 1080.309948 259.823152 L 1077.793461 259.331425 L 1072.77495 259.823152 L 1067.756439 262.339639 L 1062.737927 263.843746 L 1064.748224 268.37053 L 1066.758521 269.874637 L 1066.758521 271.884934 L 1064.256497 272.882851 L 1062.737927 275.905528 L 1064.256497 278.407552 L 1068.768818 280.417849 L 1070.779115 280.417849 L 1071.777033 277.915825 L 1081.814055 280.924039 L 1084.330542 283.426064 L 1083.332625 286.940468 L 1084.836732 289.456955 L 1083.332625 298.481597 L 1084.836732 301.996002 L 1082.826435 304.006299 L 1081.322328 309.516537 L 1078.805841 310.514454 L 1074.29352 309.010347 L 1073.78733 307.00005 L 1070.779115 306.002133 L 1068.277091 308.504157 L 1065.760604 309.010347 L 1065.254414 312.524751 L 1070.779115 315.026776 L 1073.295602 313.522669 L 1077.301734 315.026776 L 1078.299651 318.54118 L 1075.291437 320.045287 L 1073.28114 324.572071 L 1069.275008 327.074095 L 1064.748224 326.076178 L 1064.748224 329.590582 L 1067.264711 329.084392 L 1072.283223 329.590582 L 1076.289354 331.094689 L 1075.291437 328.086475 L 1073.28114 327.088558 L 1075.291437 324.586533 L 1080.816138 324.080344 L 1084.822269 327.088558 L 1083.824352 332.107069 L 1088.336673 335.115283 L 1089.855243 337.63177 L 1096.884051 340.639984 L 1101.396373 344.154388 L 1099.892266 354.191411 L 1100.890183 356.201708 L 1108.916908 356.693435 L 1114.933337 359.716112 L 1115.439527 362.218136 L 1117.956014 363.736706 L 1122.468335 362.724326 L 1124.478632 364.242896 L 1125.476549 367.25111 L 1126.995119 368.755217 L 1130.49506 369.753135 L 1132.01363 372.269621 L 1132.505357 377.288133 L 1129.005416 380.296347 L 1124.478632 380.802537 L 1117.956014 382.812834 L 1120.964228 387.325155 L 1121.470418 389.335452 L 1125.476549 391.851939 L 1124.984822 393.356046 L 1114.933337 400.384854 L 1112.937502 403.393069 L 1105.894231 403.899259 L 1103.883934 403.393069 L 1103.883934 399.386937 L 1101.38191 397.37664 L 1094.859292 400.891044 L 1092.848995 399.893127 L 1090.34697 393.876699 L 1090.34697 390.362295 L 1088.828401 387.35408 L 1086.818104 387.35408 L 1082.811972 390.854022 L 1080.295485 394.368426 L 1075.783164 395.886996 L 1074.785247 397.391103 L 1071.270843 405.924018 L 1067.264711 408.932232 L 1063.244117 409.93015 L 1061.74001 413.444554 L 1062.737927 416.452768 L 1062.2462 418.954792 L 1057.213226 421.471279 L 1054.711202 424.479493 L 1054.205012 426.99598 L 1055.202929 430.495922 L 1053.698822 432.506219 L 1053.207095 435.514433 L 1049.692691 438.53711 L 1050.690608 441.039134 L 1046.684476 447.055563 L 1046.178287 453.578181 L 1047.176204 456.094668 L 1049.692691 458.596692 L 1056.215309 466.13169 L 1057.719416 470.644012 L 1057.213226 472.654309 L 1053.713285 474.664606 L 1051.196798 475.170796 L 1047.190666 479.683117 L 1044.674179 479.19139 L 1043.170072 481.693414 L 1046.684476 486.220198 Z M 1046.727864 486.234661 " stroke="#000000" stroke-width="1" stroke-opacity="1" stroke-miterlimit="4"/></g></svg>