<svg xmlns="http://www.w3.org/2000/svg" xmlns:xlink="http://www.w3.org/1999/xlink" width="500" zoomAndPan="magnify" viewBox="0 0 375 374.999991" height="500" preserveAspectRatio="xMidYMid meet" version="1.0"><defs><clipPath id="44f1c218d4"><path d="M 27 42 L 353 42 L 353 337.414062 L 27 337.414062 Z M 27 42 " clip-rule="nonzero"/></clipPath></defs><path fill="#000000" d="M 187.5 375 C 83.910156 375 0 290.507812 0 187.5 C 0 84.492188 83.910156 0 187.5 0 C 291.089844 0 375 83.910156 375 187.5 C 375 291.089844 290.507812 375 187.5 375 Z M 187.5 11.574219 C 90.277344 11.574219 11.574219 90.277344 11.574219 187.5 C 11.574219 284.722656 90.277344 363.425781 187.5 363.425781 C 284.722656 363.425781 363.425781 284.722656 363.425781 187.5 C 363.425781 90.277344 284.144531 11.574219 187.5 11.574219 Z M 187.5 11.574219 " fill-opacity="1" fill-rule="nonzero"/><g clip-path="url(#44f1c218d4)"><path fill="#ff66c4" d="M 229.015625 74.773438 C 232.328125 76.277344 236.578125 74.292969 239.496094 76.734375 C 240.652344 77.800781 241.980469 77.84375 243.332031 78.019531 C 245.117188 78.410156 247.1875 78.019531 248.757812 79.128906 C 251.046875 80.566406 252.984375 82.09375 253.636719 84.859375 C 254.597656 86.777344 255.730469 88.804688 255.96875 90.9375 C 256.710938 94.597656 258.410156 97.890625 258.976562 101.59375 C 259.128906 102.902344 259.609375 104.535156 259.457031 105.820312 C 259.0625 107.085938 259.304688 108.28125 259.519531 109.480469 C 260.347656 111.855469 263.09375 113.96875 265.46875 114.625 C 267.515625 115.082031 268.933594 116.628906 270.675781 117.628906 C 275.273438 120.09375 275.796875 127.171875 273.160156 131.140625 C 271.742188 132.578125 273.292969 141.050781 275.710938 137.457031 C 276.296875 136.105469 277.429688 134.996094 278.214844 133.710938 C 279.128906 132.511719 279.175781 130.617188 280.570312 129.875 C 285.164062 126.34375 287.277344 125.976562 291.332031 130.464844 C 292.050781 131.445312 292.117188 133.1875 293.902344 132.25 C 295.753906 131.269531 297.5625 130.222656 299.503906 129.484375 C 302.8125 128.261719 305.363281 129.308594 306.738281 132.402344 C 308.042969 135.886719 304.730469 139.417969 306.605469 143.078125 C 307.519531 146.105469 311.09375 144.714844 313.339844 144.039062 C 314.472656 142.90625 316.039062 142.96875 317.542969 143.011719 C 318.894531 143.535156 319.484375 145.824219 319.570312 147.066406 C 319.375 149.617188 320.246094 151.578125 321.792969 153.492188 C 323.578125 155.890625 324.644531 158.808594 327 160.769531 C 326.933594 160.902344 326.933594 160.96875 326.933594 161.03125 C 326.976562 160.96875 327.019531 160.902344 327.066406 160.835938 C 328.851562 162.601562 329.375 165.171875 330.941406 167.15625 C 333.363281 171.796875 323.511719 179.921875 332.773438 178.265625 C 340.179688 178.527344 352.46875 175.847656 352.601562 186.742188 C 353.429688 190.273438 341.316406 195.980469 338.632812 198.855469 C 336.542969 200.664062 333.863281 201.429688 331.664062 202.929688 C 328.308594 205.742188 324.277344 207.3125 320.355469 209.097656 C 312.269531 214.371094 303.445312 218.421875 295.644531 224.152344 C 292.464844 226.136719 288.476562 228.097656 289.285156 232.542969 C 289.347656 235.308594 291.703125 237.117188 293.054688 239.296875 C 293.335938 239.6875 294.207031 239.625 293.945312 240.40625 C 294.25 240.363281 294.6875 240.582031 294.863281 240.757812 C 296.757812 243.042969 300.722656 244.375 303.640625 244.285156 C 306.691406 244.375 308.066406 241.257812 310.265625 239.6875 C 312.945312 238.425781 317.5 238.492188 318.9375 241.539062 C 319.65625 246.488281 321.53125 257.183594 314.167969 257.535156 C 311.8125 257.511719 309.480469 256.769531 307.085938 257.140625 C 302.378906 257.207031 298.414062 259.515625 302.464844 264.09375 C 304.515625 266.3125 306.996094 268.40625 307.324219 271.585938 C 307.628906 274.398438 308.128906 277.425781 305.496094 279.691406 C 301.878906 282.503906 301.375 278.386719 296.691406 280.039062 C 295.996094 280.300781 295.691406 281.066406 296.5625 281.414062 C 297.867188 281.71875 298.152344 282.917969 298.71875 283.855469 C 298.890625 284.136719 298.980469 284.59375 299.21875 284.726562 C 301.375 285.75 301.921875 287.644531 301.746094 289.738281 C 301.355469 293.484375 298.480469 298.5625 294.121094 297.84375 C 293.597656 297.777344 293.03125 297.40625 292.660156 296.992188 C 290.742188 294.726562 287.757812 294.683594 285.363281 293.308594 C 283.816406 292.046875 281.855469 292.742188 280.132812 291.980469 C 278.714844 291.480469 277.234375 291.238281 276.234375 289.757812 C 274.925781 287.777344 270.457031 287.449219 270.457031 290.519531 C 269.957031 293.964844 267.953125 296.949219 266.144531 299.867188 C 263.269531 303.398438 258.34375 303.921875 254.660156 306.253906 C 251.632812 306.929688 245.859375 306.90625 245.816406 302.722656 C 245.816406 302.285156 245.988281 301.65625 246.316406 301.4375 C 247.777344 300.433594 248.363281 298.757812 249.476562 297.515625 C 250.152344 296.730469 250.890625 295.945312 251.304688 295.007812 C 253.007812 290.933594 251.742188 286.121094 253.246094 282.046875 C 254.246094 279.234375 258.410156 275.703125 257.449219 272.894531 C 256.558594 270.824219 253.964844 269.234375 251.699219 269.84375 C 248.472656 270.738281 245.25 270.433594 242.046875 270.367188 C 235.402344 270.433594 236.839844 263.808594 236.359375 259.210938 C 236.273438 258.992188 235.25 258.6875 235.074219 259.253906 C 233.875 261.824219 232.414062 264.246094 230.914062 266.664062 C 229.78125 269.210938 227.492188 270.585938 224.726562 270.214844 C 222.808594 270.214844 222.066406 271.304688 222.503906 273.199219 C 222.699219 274.878906 222.675781 276.640625 223.113281 278.277344 C 222.371094 279.320312 222.917969 280.695312 222.261719 281.761719 C 221.476562 283.070312 221.695312 284.289062 222.261719 285.683594 C 222.675781 286.707031 223.265625 287.121094 224.179688 287.425781 C 226.488281 288.191406 227.925781 291.457031 226.816406 293.570312 C 225.75 295.597656 225.574219 297.753906 225.246094 299.957031 C 225.226562 304.03125 227.1875 307.953125 224.8125 311.785156 C 222.589844 317.277344 216.878906 318.171875 213.65625 322.570312 C 213.308594 323.050781 213.328125 323.859375 214.003906 324.402344 C 215.507812 325.621094 216.292969 327.367188 216.3125 329.175781 C 216.511719 332.421875 214.941406 333.683594 211.847656 335.296875 C 211.738281 335.253906 211.652344 335.230469 211.585938 335.230469 C 211.652344 335.273438 211.738281 335.316406 211.804688 335.363281 C 209.691406 337.433594 206.378906 337.191406 203.675781 337.433594 C 196.921875 337.496094 191.824219 332.136719 187.511719 327.519531 C 185.351562 324.46875 182.671875 321.199219 178.46875 321.898438 C 177.683594 321.984375 176.746094 321.460938 176.027344 321.003906 C 168.925781 316.472656 172.191406 313.070312 168.378906 308.105469 C 161.582031 299.933594 165.527344 301.371094 163.410156 293.507812 C 162.214844 290.890625 160.621094 292.917969 156.417969 288.972656 C 151.691406 286.554688 156.941406 279.453125 153.300781 276.992188 C 150.011719 275.75 148.945312 277.925781 146.699219 277.449219 C 146.765625 277.339844 146.765625 277.273438 146.765625 277.207031 C 146.722656 277.273438 146.699219 277.339844 146.65625 277.40625 C 141.449219 277.40625 138.398438 276.117188 134.519531 272.65625 C 134.5 272.785156 134.476562 272.917969 134.457031 273.046875 C 134.347656 272.894531 134.238281 272.761719 134.0625 272.546875 C 133.953125 272.503906 133.867188 272.480469 133.800781 272.480469 C 133.867188 272.523438 133.953125 272.566406 134.019531 272.609375 C 133.886719 272.675781 133.671875 272.785156 133.648438 272.761719 C 132.582031 271 130.621094 270.648438 128.984375 269.757812 C 127.984375 268.949219 126.960938 267.859375 125.738281 267.402344 C 123.777344 266.488281 121.25 266.683594 119.683594 265.136719 C 119.550781 265.136719 119.488281 265.160156 119.421875 265.203125 C 112.363281 263.894531 105.214844 265.246094 98.113281 264.703125 C 94.667969 264.746094 91.160156 264.460938 87.71875 264.289062 C 87.085938 264.265625 86.476562 263.832031 85.910156 263.503906 C 85.976562 263.394531 85.976562 263.328125 85.976562 263.265625 C 85.933594 263.328125 85.910156 263.394531 85.867188 263.460938 C 85.453125 263.21875 84.929688 263.089844 84.648438 262.761719 C 82.792969 260.953125 79.546875 261.042969 78.699219 258.1875 C 75.84375 252.914062 76.171875 246.902344 75.125 241.191406 C 74.6875 239.6875 73.601562 238.316406 72.792969 236.945312 C 72.292969 235.550781 71.53125 234.394531 70.222656 233.652344 C 70.289062 233.542969 70.289062 233.480469 70.289062 233.414062 C 70.246094 233.480469 70.222656 233.542969 70.179688 233.609375 C 69.742188 233.085938 69.328125 232.519531 68.851562 232.019531 C 68.457031 231.605469 68 231.257812 67.609375 230.820312 C 67.671875 230.710938 67.671875 230.648438 67.671875 230.582031 C 67.628906 230.648438 67.609375 230.710938 67.566406 230.777344 C 67.476562 230.429688 67.433594 230.015625 67.367188 229.6875 C 65.558594 228.25 66.476562 225.4375 64.972656 223.609375 C 63.96875 221.148438 63.316406 218.3125 60.417969 217.53125 C 60.484375 217.421875 60.484375 217.355469 60.484375 217.289062 C 60.441406 217.355469 60.417969 217.421875 60.375 217.484375 C 57.890625 215.699219 54.972656 214.980469 53.140625 212.34375 C 47.039062 207.679688 46.429688 201.363281 49.699219 194.71875 C 51.855469 191.730469 50.765625 187.789062 51.203125 184.300781 C 51.246094 182.167969 50.636719 181.382812 48.628906 180.792969 C 47.257812 180.621094 45.578125 179.292969 44.339844 180.207031 C 44.011719 179.074219 43.183594 180.25 42.550781 179.835938 C 38.214844 179.050781 37.84375 178.136719 34.273438 175.914062 C 34.359375 174.867188 29.761719 173.515625 31.15625 172.472656 C 31.046875 172.363281 30.9375 172.273438 30.785156 172.101562 C 30.675781 172.058594 30.589844 172.035156 30.523438 172.035156 C 30.589844 172.078125 30.675781 172.121094 30.742188 172.167969 C 30.65625 172.273438 30.589844 172.363281 30.503906 172.472656 C 27.886719 168.660156 26.449219 163.234375 28.148438 158.808594 C 29.890625 155.367188 31.15625 151.621094 34.183594 148.984375 C 37.257812 146.347656 40.371094 143.734375 43.421875 141.050781 C 45.320312 139.351562 47.214844 137.609375 48.914062 135.714844 C 51.355469 132.554688 52.792969 128.632812 55.644531 125.757812 C 58.980469 121.746094 62.945312 115.472656 69.003906 118.195312 C 69.960938 119.15625 71.027344 119.960938 72.359375 120.289062 C 75.210938 121.703125 76.148438 125.210938 78.304688 127.414062 C 80.222656 129.417969 82.773438 132.46875 85.933594 131.246094 C 87.632812 130.398438 89.570312 130.222656 91.488281 130.070312 C 93.796875 130.09375 96.195312 129.046875 98.4375 129.394531 C 98.375 129.589844 98.375 129.746094 98.375 129.875 C 98.417969 129.746094 98.460938 129.589844 98.503906 129.460938 C 100.945312 129.484375 103.429688 129.375 105.867188 129.132812 C 108.636719 128.851562 110.988281 127.195312 113.710938 126.738281 C 116.5 126.148438 118.527344 123.601562 120.421875 121.660156 C 121.078125 120.875 121.011719 119.480469 121.316406 118.390625 C 121.449219 118.457031 121.511719 118.457031 121.578125 118.480469 C 121.511719 118.4375 121.449219 118.390625 121.382812 118.347656 C 121.707031 117.390625 121.730469 116.171875 122.320312 115.34375 C 124.5625 113.859375 126.457031 111.789062 129.3125 111.355469 C 130.882812 110.699219 132.082031 109.109375 133.167969 107.890625 C 134.542969 103.792969 136.089844 99.523438 138.683594 95.992188 C 139.488281 94.859375 139.859375 93.183594 141.734375 93.03125 C 144.695312 90.894531 148.550781 90.066406 151.601562 87.886719 C 151.734375 87.953125 151.796875 87.953125 151.863281 87.976562 C 151.796875 87.933594 151.734375 87.886719 151.667969 87.84375 C 152.953125 87.277344 154.238281 86.710938 155.523438 86.167969 C 155.589844 86.144531 155.675781 86.210938 155.765625 86.253906 C 156.441406 83.683594 159.96875 84.839844 160.601562 82.332031 C 160.753906 81.917969 160.949219 81.4375 161.277344 81.222656 C 163.238281 79.738281 163.542969 77.210938 165.089844 75.402344 C 168.640625 71.023438 170.996094 65.859375 174.480469 61.460938 C 177.769531 56.992188 174.480469 53.832031 180.167969 47.558594 C 182.914062 44.964844 186.421875 44.398438 189.992188 44.117188 C 191.628906 43.570312 193.195312 42.328125 194.984375 42.480469 C 196.160156 41.914062 197.164062 42.699219 198.25 42.808594 C 199.972656 42.984375 200.886719 44.203125 201.957031 45.378906 C 204.351562 48.300781 208.339844 47.753906 211.71875 47.753906 C 215.269531 47.949219 219.058594 47.253906 222.503906 48.167969 C 224.59375 49.496094 222.980469 52.484375 222.894531 54.488281 C 221.957031 57.078125 224.203125 58.691406 224.441406 61.132812 C 226.578125 67.277344 223.15625 69.824219 228.953125 74.707031 C 228.886719 74.835938 228.886719 74.902344 228.886719 74.96875 C 228.929688 74.902344 228.972656 74.835938 229.015625 74.773438 M 73.011719 235.898438 C 72.882812 235.875 72.773438 235.832031 72.664062 235.808594 C 72.640625 235.808594 72.640625 235.898438 72.621094 235.941406 C 72.707031 235.964844 72.792969 235.984375 73.011719 235.898438 M 30.304688 171.621094 C 30.351562 171.644531 30.394531 171.6875 30.4375 171.707031 C 30.414062 171.644531 30.414062 171.578125 30.304688 171.621094 M 39.785156 178.703125 C 39.742188 178.746094 39.71875 178.789062 39.695312 178.832031 C 39.761719 178.832031 39.828125 178.8125 39.785156 178.703125 M 50.023438 180.664062 C 49.980469 180.707031 49.960938 180.75 49.9375 180.792969 C 50.003906 180.792969 50.070312 180.773438 50.023438 180.664062 M 67.671875 230.339844 C 67.695312 230.296875 67.71875 230.253906 67.761719 230.210938 C 67.695312 230.210938 67.628906 230.234375 67.671875 230.339844 M 152.320312 87.953125 C 152.277344 87.933594 152.234375 87.886719 152.191406 87.867188 C 152.191406 87.933594 152.191406 87.996094 152.320312 87.953125 M 72.792969 236.332031 C 72.835938 236.355469 72.882812 236.398438 72.925781 236.421875 C 72.902344 236.355469 72.902344 236.289062 72.792969 236.332031 M 291.550781 237.421875 C 291.507812 237.402344 291.460938 237.355469 291.417969 237.335938 C 291.417969 237.402344 291.417969 237.464844 291.550781 237.421875 M 117.460938 264.660156 C 117.417969 264.636719 117.371094 264.59375 117.328125 264.570312 C 117.328125 264.636719 117.328125 264.703125 117.460938 264.660156 M 117.785156 264.550781 C 117.742188 264.59375 117.722656 264.636719 117.699219 264.679688 C 117.765625 264.679688 117.832031 264.660156 117.785156 264.550781 M 222.699219 278.601562 C 222.65625 278.582031 222.609375 278.539062 222.566406 278.515625 C 222.566406 278.582031 222.566406 278.644531 222.699219 278.601562 M 69.851562 232.738281 C 69.808594 232.78125 69.785156 232.824219 69.765625 232.867188 C 69.832031 232.867188 69.894531 232.847656 69.851562 232.738281 " fill-opacity="1" fill-rule="nonzero"/></g><path fill="#ff66c4" d="M 134.890625 273.046875 C 134.738281 273.089844 134.585938 273.113281 134.5 273.089844 C 134.671875 273.046875 134.78125 273.046875 134.890625 273.046875 " fill-opacity="1" fill-rule="nonzero"/><path fill="#ff66c4" d="M 259.304688 103.53125 C 259.324219 103.597656 259.367188 103.683594 259.347656 103.683594 C 259.304688 103.640625 259.304688 103.53125 259.304688 103.53125 " fill-opacity="1" fill-rule="nonzero"/><path fill="#ff66c4" d="M 33.140625 175 C 33.09375 174.933594 33.050781 174.847656 33.074219 174.824219 C 33.140625 174.890625 33.140625 175 33.140625 175 " fill-opacity="1" fill-rule="nonzero"/><path fill="#ff66c4" d="M 33.355469 175 C 33.269531 175.042969 33.203125 175.0625 33.183594 175.042969 C 33.246094 175 33.355469 175 33.355469 175 " fill-opacity="1" fill-rule="nonzero"/><path fill="#ff66c4" d="M 33.398438 175.585938 C 33.421875 175.542969 33.488281 175.523438 33.554688 175.523438 C 33.507812 175.566406 33.488281 175.609375 33.398438 175.585938 " fill-opacity="1" fill-rule="nonzero"/><path fill="#ff66c4" d="M 34.011719 175.652344 C 33.96875 175.585938 33.921875 175.5 33.945312 175.476562 C 34.011719 175.542969 34.011719 175.652344 34.011719 175.652344 " fill-opacity="1" fill-rule="nonzero"/><path fill="#ff66c4" d="M 34.226562 175.871094 C 34.140625 175.828125 34.074219 175.804688 34.054688 175.695312 C 34.121094 175.652344 34.226562 175.652344 34.226562 175.695312 C 34.226562 175.761719 34.226562 175.871094 34.226562 175.871094 " fill-opacity="1" fill-rule="nonzero"/><path fill="#ff66c4" d="M 193.546875 42.523438 C 193.546875 42.460938 193.566406 42.394531 193.609375 42.328125 C 193.609375 42.394531 193.609375 42.460938 193.546875 42.523438 " fill-opacity="1" fill-rule="nonzero"/><path fill="#ff66c4" d="M 319.484375 242.804688 C 319.546875 242.828125 319.546875 242.890625 319.570312 242.957031 C 319.527344 242.933594 319.484375 242.890625 319.484375 242.804688 " fill-opacity="1" fill-rule="nonzero"/><path fill="#ff66c4" d="M 75.777344 249.667969 C 75.714844 249.667969 75.714844 249.601562 75.714844 249.539062 C 75.757812 249.558594 75.800781 249.601562 75.777344 249.667969 " fill-opacity="1" fill-rule="nonzero"/><path fill="#ff66c4" d="M 75.667969 249.996094 C 75.734375 250.015625 75.734375 250.082031 75.757812 250.148438 C 75.714844 250.125 75.667969 250.082031 75.667969 249.996094 " fill-opacity="1" fill-rule="nonzero"/><path fill="#ff66c4" d="M 98.070312 264.765625 C 97.980469 264.8125 97.914062 264.832031 97.894531 264.8125 C 97.960938 264.765625 98.070312 264.765625 98.070312 264.765625 " fill-opacity="1" fill-rule="nonzero"/><path fill="#ff66c4" d="M 98.503906 264.765625 C 98.417969 264.8125 98.351562 264.832031 98.328125 264.8125 C 98.394531 264.765625 98.503906 264.765625 98.503906 264.765625 " fill-opacity="1" fill-rule="nonzero"/><path fill="#ff66c4" d="M 105.914062 264.765625 C 105.824219 264.8125 105.757812 264.832031 105.738281 264.8125 C 105.804688 264.765625 105.914062 264.765625 105.914062 264.765625 " fill-opacity="1" fill-rule="nonzero"/><path fill="#ff66c4" d="M 119.640625 265.203125 C 119.550781 265.246094 119.488281 265.269531 119.464844 265.246094 C 119.53125 265.203125 119.640625 265.203125 119.640625 265.203125 " fill-opacity="1" fill-rule="nonzero"/><path fill="#ff66c4" d="M 232.875 75.140625 C 232.808594 75.140625 232.808594 75.078125 232.808594 75.011719 C 232.851562 75.035156 232.894531 75.078125 232.875 75.140625 " fill-opacity="1" fill-rule="nonzero"/></svg>