<svg xmlns="http://www.w3.org/2000/svg" xmlns:xlink="http://www.w3.org/1999/xlink" width="500" zoomAndPan="magnify" viewBox="0 0 375 374.999991" height="500" preserveAspectRatio="xMidYMid meet" version="1.0"><defs><clipPath id="6e7bc8c50a"><path d="M 57 44.445312 L 284.816406 44.445312 L 284.816406 345 L 57 345 Z M 57 44.445312 " clip-rule="nonzero"/></clipPath></defs><path fill="#000000" d="M 187.5 375 C 83.910156 375 0 290.507812 0 187.5 C 0 84.492188 83.910156 0 187.5 0 C 291.089844 0 375 83.910156 375 187.5 C 375 291.089844 290.507812 375 187.5 375 Z M 187.5 11.574219 C 90.277344 11.574219 11.574219 90.277344 11.574219 187.5 C 11.574219 284.722656 90.277344 363.425781 187.5 363.425781 C 284.722656 363.425781 363.425781 284.722656 363.425781 187.5 C 363.425781 90.277344 284.144531 11.574219 187.5 11.574219 Z M 187.5 11.574219 " fill-opacity="1" fill-rule="nonzero"/><g clip-path="url(#6e7bc8c50a)"><path fill="#00bf63" d="M 249.617188 61.527344 C 249.878906 60.996094 249.398438 60.601562 249.371094 60.136719 C 249.277344 58.730469 250.015625 57.613281 251.378906 57.75 C 254.585938 58.089844 256.945312 56.179688 259.566406 54.953125 C 260.097656 54.707031 260.507812 54.226562 260.535156 53.53125 C 260.617188 51.253906 261.953125 49.847656 263.863281 48.878906 C 264.65625 48.484375 265.351562 48.222656 264.601562 47.121094 C 264.152344 46.4375 264.421875 45.632812 265.105469 45.085938 C 265.9375 44.417969 266.851562 44.472656 267.683594 45.003906 C 268.421875 45.480469 269.089844 46 270.046875 45.972656 C 270.753906 45.960938 271.207031 46.492188 271.21875 47.121094 C 271.289062 49.410156 273.335938 48.605469 274.441406 49.097656 C 275.585938 49.617188 276.910156 49.085938 277.917969 48.265625 C 278.273438 47.980469 278.109375 47.445312 278.136719 47.011719 C 278.207031 46.136719 278.667969 45.578125 279.5 45.398438 C 280.375 45.222656 281.085938 45.660156 281.332031 46.4375 C 281.65625 47.460938 282.230469 48.386719 282.285156 49.519531 C 282.355469 50.886719 283.539062 51.828125 283.855469 53.191406 C 284.347656 55.320312 284.359375 57.40625 283.910156 59.480469 C 283.730469 60.285156 283.5 61.066406 283.539062 61.871094 C 283.621094 63.535156 283.445312 65.105469 282.464844 66.535156 C 282.109375 67.042969 282.230469 67.710938 282.257812 68.296875 C 282.3125 69.46875 281.890625 70.425781 281.398438 71.503906 C 280.703125 73.03125 280.472656 74.820312 280.292969 76.511719 C 279.855469 80.605469 279.84375 84.753906 278.902344 88.777344 C 278.300781 91.34375 277.347656 93.800781 276.378906 96.257812 C 275.148438 99.355469 274.546875 102.640625 273.0625 105.710938 C 271.207031 109.535156 268.300781 112.480469 265.898438 115.851562 C 264.875 117.285156 264.519531 119.125 263.292969 120.476562 C 261.273438 122.703125 260.410156 125.691406 258.378906 127.925781 C 257.875 128.472656 257.957031 129.15625 257.96875 129.796875 C 258.023438 131.449219 257.355469 132.582031 255.855469 133.316406 C 255.144531 133.671875 254.585938 134.328125 253.917969 134.804688 C 252.757812 135.636719 251.609375 136.058594 250.503906 134.683594 C 250.3125 134.449219 250 134.328125 249.714844 134.136719 C 249.222656 136.757812 249.644531 137.273438 252.402344 137.589844 C 254.640625 137.847656 255.675781 139.335938 254.449219 141.164062 C 253.382812 142.734375 253.179688 144.480469 252.988281 146.074219 C 252.675781 148.585938 251.800781 151.070312 252.101562 153.648438 C 252.320312 155.558594 252.648438 157.429688 254.40625 158.617188 C 255.882812 159.597656 255.308594 161.207031 255.511719 162.53125 C 255.648438 163.460938 255.675781 164.375 256.003906 165.300781 C 256.535156 166.789062 256.414062 168.425781 256.699219 169.957031 C 257.519531 174.390625 257.355469 178.839844 257.339844 183.289062 C 257.328125 185.757812 256.960938 186.058594 254.558594 186.304688 C 252.949219 186.464844 251.433594 186.972656 250.53125 188.582031 C 251.609375 188.839844 252.578125 189.292969 253.492188 189.890625 C 254.09375 190.300781 254.640625 190.765625 254.667969 191.554688 C 254.695312 192.511719 255.242188 193.015625 256.046875 193.398438 C 256.917969 193.808594 257.355469 194.542969 257.300781 195.511719 C 256.917969 203.085938 258.269531 210.605469 258.011719 218.179688 C 257.957031 219.691406 257.957031 221.179688 257.53125 222.695312 C 257.191406 223.910156 256.46875 224.441406 255.484375 224.753906 C 251.910156 225.886719 248.402344 225.492188 244.761719 224.632812 C 241.609375 223.882812 238.496094 222.53125 235.097656 222.925781 C 234.089844 223.050781 233.027344 223.132812 232.082031 222.492188 C 231.796875 222.300781 231.46875 222.367188 231.15625 222.558594 C 229.65625 223.527344 228.152344 224.511719 226.625 225.4375 C 226.078125 225.765625 225.902344 226.230469 225.890625 226.789062 C 225.863281 227.484375 225.574219 228.058594 225.164062 228.578125 C 223.636719 230.515625 223.527344 233.1875 224.90625 235.125 C 226.242188 237.007812 226.242188 237.007812 224.457031 238.46875 C 221.578125 240.855469 219.296875 243.722656 217.457031 246.96875 C 216.214844 249.167969 215.027344 251.363281 213.0625 253.109375 C 211.382812 254.613281 210.101562 256.496094 209.445312 258.800781 C 209.050781 260.207031 207.332031 261.050781 207.25 262.691406 C 207.140625 264.886719 205.324219 267.136719 206.933594 269.253906 C 209.625 272.761719 212.433594 276.238281 217.621094 275.859375 C 219.132812 275.75 220.675781 275.84375 222.203125 275.871094 C 223.253906 275.886719 224.183594 275.679688 225.097656 275.027344 C 226.695312 273.878906 228.726562 274.300781 229.4375 275.777344 C 229.546875 276.023438 229.75 276.335938 229.683594 276.527344 C 228.632812 279.171875 231.007812 279.828125 232.34375 281.015625 C 233.027344 281.617188 233.816406 282.121094 234.472656 282.777344 C 235.304688 283.582031 235.425781 284.617188 234.8125 285.4375 C 234.210938 286.242188 233.160156 286.199219 232.273438 285.695312 C 231.8125 285.4375 231.386719 285.082031 230.992188 284.699219 C 228.535156 282.378906 225.875 280.742188 222.328125 280.375 C 220.320312 280.167969 218.492188 279.761719 216.460938 280.441406 C 214.644531 281.058594 212.804688 280.265625 211.070312 279.636719 C 209.542969 279.09375 208.136719 278.957031 206.800781 280.117188 C 206.539062 280.347656 206.101562 280.523438 205.761719 280.511719 C 202.171875 280.375 199.15625 282 196.15625 283.648438 C 195.582031 283.964844 194.953125 284.304688 194.339844 284.332031 C 193.042969 284.398438 192.144531 284.808594 191.160156 285.804688 C 190.042969 286.9375 188.242188 286.992188 186.578125 287.117188 C 183.453125 287.332031 180.21875 287.429688 177.542969 289.3125 C 175.238281 290.921875 173.148438 292.859375 170.855469 294.511719 C 169.21875 295.683594 168.167969 297.253906 167.050781 298.863281 C 166.09375 300.242188 166.515625 301.851562 165.820312 303.203125 C 165.65625 303.515625 165.945312 303.859375 166.3125 303.898438 C 167.390625 304.007812 168.113281 304.554688 168.128906 305.632812 C 168.140625 306.792969 167.269531 307.445312 166.339844 307.980469 C 164.660156 308.960938 163.324219 311.992188 163.761719 313.902344 C 164.363281 316.5625 163.734375 319.101562 163.066406 321.636719 C 162.996094 321.898438 162.902344 322.199219 162.710938 322.363281 C 161.046875 323.863281 160.023438 325.703125 159.570312 327.886719 C 159.476562 328.339844 159.054688 328.746094 158.5625 328.898438 C 155.289062 329.894531 152.585938 331.941406 149.679688 333.605469 C 147.453125 334.875 145.257812 336.15625 143.621094 338.203125 C 142.242188 339.910156 140.113281 339.8125 138.242188 340.058594 C 136.878906 340.238281 135.597656 340.648438 134.3125 341.015625 C 133.578125 341.234375 132.9375 341.667969 132.703125 342.667969 C 132.390625 344.003906 131.378906 344.632812 129.933594 344.738281 C 126.863281 344.972656 124.082031 343.757812 121.171875 343.199219 C 117.980469 342.585938 115.523438 340.566406 112.835938 339.089844 C 110.230469 337.671875 108.140625 335.269531 105.945312 333.167969 C 104.9375 332.199219 105.605469 330.683594 107.226562 330.277344 C 108.167969 330.042969 108.457031 329.648438 108.511719 328.746094 C 108.59375 327.464844 109.65625 326.671875 110.269531 325.675781 C 110.667969 325.035156 110.941406 324.53125 110.597656 323.753906 C 110.394531 323.289062 110.476562 322.675781 110.449219 322.144531 C 110.378906 320.941406 110.886719 320.21875 112.167969 320.355469 C 113.136719 320.453125 113.777344 320.097656 114.050781 319.195312 C 114.324219 318.269531 113.792969 317.652344 113.082031 317.175781 C 110.542969 315.46875 108.824219 313.34375 109.109375 310.027344 C 109.191406 308.988281 109.4375 308.144531 110.121094 307.351562 C 111.347656 305.933594 112.152344 304.308594 112.671875 302.492188 C 112.917969 301.648438 112.617188 301.320312 112.042969 300.898438 C 109.300781 298.863281 108.769531 295.847656 108.511719 292.738281 C 108.46875 292.273438 108.742188 291.878906 109.136719 291.660156 C 111.964844 290.0625 112.714844 287.15625 113.710938 284.414062 C 115.007812 280.8125 115.730469 277.003906 117.761719 273.675781 C 118.363281 272.679688 118.648438 271.476562 118.992188 270.332031 C 119.152344 269.785156 119.359375 269.226562 119.753906 268.914062 C 121.351562 267.644531 121.214844 266.414062 119.851562 265.105469 C 119.699219 264.957031 119.660156 264.722656 119.550781 264.53125 C 118.417969 262.609375 118.390625 262.539062 116.300781 263.589844 C 114.871094 264.3125 113.65625 264.367188 112.425781 263.222656 C 111.691406 262.527344 110.515625 262.472656 109.875 261.570312 C 108.796875 260.054688 109.902344 258.652344 110.132812 257.230469 C 110.296875 256.179688 110.707031 255.128906 111.15625 254.160156 C 112.234375 251.800781 111.773438 249.34375 111.785156 246.914062 C 111.785156 245.890625 111.511719 244.773438 112.167969 243.886719 C 113.792969 241.648438 113.191406 239.410156 112.097656 237.269531 C 111.347656 235.792969 111.308594 234.539062 112.222656 233.175781 C 112.632812 232.546875 112.863281 231.796875 113.203125 231.128906 C 114.023438 229.53125 114.746094 228.097656 113.257812 226.296875 C 112.261719 225.097656 112.234375 223.242188 111.347656 221.835938 C 110.914062 221.140625 110.597656 221.070312 109.792969 221.332031 C 106.65625 222.328125 104.15625 224.265625 101.6875 226.3125 C 99.519531 228.097656 96.980469 228.03125 94.960938 226.078125 C 93.910156 225.054688 92.898438 224.03125 91.660156 223.199219 C 90.675781 222.546875 90.28125 221.398438 90.28125 220.199219 C 90.28125 219.023438 90.15625 217.972656 89.394531 216.992188 C 88.519531 215.859375 88.628906 214.359375 89.023438 213.199219 C 89.898438 210.617188 89.53125 208.011719 89.542969 205.433594 C 89.558594 203.660156 89.460938 201.96875 91.835938 201.652344 C 92.136719 201.613281 92.449219 201.191406 92.628906 200.875 C 93.226562 199.785156 92.722656 196.277344 91.875 195.363281 C 91.660156 195.117188 91.332031 194.886719 91.277344 194.597656 C 90.582031 191.324219 87.757812 190.941406 85.246094 190.191406 C 82.175781 189.277344 80.441406 185.375 81.929688 182.496094 C 82.214844 181.9375 82.695312 181.402344 83.226562 181.050781 C 85 179.863281 85.273438 179.042969 84.070312 177.269531 C 83.417969 176.300781 82.503906 175.550781 82.175781 174.292969 C 81.957031 173.476562 80.917969 173.789062 80.277344 173.953125 C 78.027344 174.539062 75.800781 174.828125 73.566406 173.941406 C 73.058594 173.734375 72.488281 173.804688 71.980469 174.089844 C 70.917969 174.703125 70.085938 174.226562 69.363281 173.488281 C 68.570312 172.683594 68.570312 171.851562 69.117188 170.828125 C 69.933594 169.273438 71.082031 168.058594 72.570312 167.226562 C 73.742188 166.558594 73.714844 166.011719 72.8125 165.167969 C 70.671875 163.148438 68.175781 161.6875 65.40625 160.785156 C 63.671875 160.210938 61.953125 159.53125 60.097656 159.3125 C 58.664062 159.136719 57.597656 157.375 57.476562 155.421875 C 57.421875 154.605469 57.53125 153.785156 57.464844 152.96875 C 57.203125 149.992188 59.25 149.542969 61.242188 150.320312 C 62.90625 150.976562 63.835938 150.441406 65.144531 149.445312 C 67.371094 147.742188 68.542969 144.945312 71.3125 143.851562 C 73.835938 142.855469 76.839844 144.371094 77.277344 147.058594 C 77.414062 147.90625 77.808594 148.21875 78.558594 148.164062 C 81.273438 148 84.003906 148.464844 86.691406 147.753906 C 86.894531 147.699219 87.128906 147.699219 87.332031 147.753906 C 90.59375 148.640625 89.695312 148.082031 90.90625 145.476562 C 92.09375 142.898438 93.242188 140.140625 96.039062 138.816406 C 99.902344 137 101.441406 137.328125 104.445312 140.332031 C 105.140625 141.027344 105.550781 141.640625 106.382812 140.304688 C 107.035156 139.253906 108.441406 138.992188 109.738281 138.964844 C 111.199219 138.941406 112.644531 139.035156 114.078125 138.421875 C 115.332031 137.890625 116.535156 138.597656 117.652344 139.15625 C 120.929688 140.769531 123.261719 139.867188 124.230469 136.441406 C 124.652344 134.96875 125.511719 133.78125 126.46875 132.703125 C 127.667969 131.339844 129.660156 131.066406 131.148438 131.269531 C 134.957031 131.789062 136.796875 129.523438 138.53125 126.890625 C 138.886719 126.34375 139.199219 125.785156 139.609375 125.265625 C 140.15625 124.558594 141.4375 124.242188 140.863281 122.933594 C 140.238281 121.472656 139.445312 120.109375 137.644531 120.121094 C 134.367188 120.148438 131.164062 119.234375 127.886719 119.507812 C 126.589844 119.617188 125.664062 119.316406 125.472656 117.761719 C 125.363281 116.832031 124.214844 116.097656 124.667969 115.058594 C 125.238281 113.722656 126.425781 112.917969 127.640625 112.140625 C 129.960938 110.640625 131.789062 108.6875 132.675781 105.984375 C 132.964844 105.113281 132.828125 104.347656 131.941406 103.898438 C 131.503906 103.664062 130.972656 103.503906 130.917969 102.941406 C 130.699219 100.515625 129.703125 98.070312 131.027344 95.640625 C 131.515625 94.742188 131.859375 93.746094 132.375 92.859375 C 132.976562 91.808594 133.90625 91.167969 135.175781 91.167969 C 135.9375 91.167969 136.703125 91.207031 137.464844 91.167969 C 139.445312 91.085938 140.398438 90.238281 140.660156 88.273438 C 140.742188 87.632812 141.109375 87.167969 141.382812 86.648438 C 141.941406 85.613281 142.515625 84.644531 142.789062 83.417969 C 143.277344 81.207031 145.433594 81.054688 147.195312 80.726562 C 149.609375 80.277344 151.699219 81.015625 153.269531 83.035156 C 153.9375 83.894531 154.535156 84.289062 155.34375 82.992188 C 156.160156 81.667969 157.730469 81.65625 159.257812 82.527344 C 161.140625 83.605469 162.503906 85.695312 164.714844 85.980469 C 167.855469 86.390625 169.503906 88.453125 171.320312 90.621094 C 172.765625 92.355469 174.554688 93.867188 177.132812 93.757812 C 178.714844 93.691406 180.394531 92.257812 180.652344 90.714844 C 181.050781 88.273438 181.171875 88.191406 183.65625 87.835938 C 185.390625 87.589844 185.976562 86.117188 186.425781 84.738281 C 187.328125 82.023438 188.214844 79.308594 188.625 76.429688 C 188.855469 74.710938 189.726562 73.074219 191.816406 72.757812 C 192.226562 72.691406 192.566406 72.457031 192.742188 72.144531 C 193.660156 70.464844 195.214844 70.222656 196.917969 70.152344 C 198.378906 70.097656 199.71875 69.308594 201.246094 69.484375 C 202.007812 69.578125 202.773438 69.511719 203.347656 70.152344 C 203.917969 70.78125 204.316406 70.546875 204.753906 69.949219 C 205.816406 68.515625 209.5 68.269531 210.539062 69.703125 C 211.617188 71.175781 213.101562 71.328125 214.632812 71.570312 C 217.484375 72.035156 219.257812 70.519531 220.59375 68.269531 C 221.042969 67.503906 221.617188 66.863281 222.257812 66.277344 C 222.820312 65.757812 223.597656 65.324219 224.183594 65.664062 C 226.449219 66.972656 227.472656 65.375 228.617188 63.957031 C 228.753906 63.792969 228.917969 63.574219 229.09375 63.519531 C 231.742188 62.839844 231.742188 60.4375 232.273438 58.457031 C 233 55.769531 235.386719 54.378906 238.035156 55.347656 C 239.058594 55.714844 240.082031 56.179688 240.695312 57.136719 C 241.703125 58.664062 243.148438 58.621094 244.609375 58.214844 C 246.820312 57.597656 247.980469 58.144531 248.746094 60.273438 C 248.882812 60.738281 248.636719 61.570312 249.617188 61.527344 Z M 249.617188 61.527344 " fill-opacity="1" fill-rule="nonzero"/></g></svg>