<svg xmlns="http://www.w3.org/2000/svg" xmlns:xlink="http://www.w3.org/1999/xlink" width="500" zoomAndPan="magnify" viewBox="0 0 375 374.999991" height="500" preserveAspectRatio="xMidYMid meet" version="1.0"><path fill="#000000" d="M 187.5 375 C 83.910156 375 0 290.507812 0 187.5 C 0 84.492188 83.910156 0 187.5 0 C 291.089844 0 375 83.910156 375 187.5 C 375 291.089844 290.507812 375 187.5 375 Z M 187.5 11.574219 C 90.277344 11.574219 11.574219 90.277344 11.574219 187.5 C 11.574219 284.722656 90.277344 363.425781 187.5 363.425781 C 284.722656 363.425781 363.425781 284.722656 363.425781 187.5 C 363.425781 90.277344 284.144531 11.574219 187.5 11.574219 Z M 187.5 11.574219 " fill-opacity="1" fill-rule="nonzero"/><path fill="#ff914d" d="M 109.730469 296.019531 C 111.839844 295.1875 113.746094 295.160156 115.230469 296.65625 C 116.101562 297.542969 116.578125 298.835938 117.164062 299.980469 C 117.761719 301.136719 118.359375 302.226562 119.328125 303.164062 C 120.363281 304.15625 120.308594 305.722656 119.4375 306.59375 C 117.257812 308.746094 116.101562 311.628906 113.9375 313.769531 C 111.949219 315.714844 110.492188 315.605469 108.804688 313.414062 C 108.617188 313.15625 108.507812 312.746094 108.152344 312.734375 C 105.101562 312.679688 103.523438 310.09375 101.265625 308.703125 C 99.742188 307.765625 99.589844 307.710938 98.910156 309.386719 C 98.40625 310.625 96.351562 311.984375 95.140625 311.890625 C 93.847656 311.78125 91.695312 310.230469 92.007812 309.058594 C 92.609375 306.824219 91.070312 306.214844 89.96875 305.109375 C 89.601562 304.742188 89.273438 304.308594 88.878906 303.914062 C 87.832031 302.851562 87.695312 301.300781 88.621094 300.15625 C 90.035156 298.425781 89.097656 296.65625 88.6875 294.96875 C 88.429688 293.894531 87.695312 292.941406 87.695312 291.746094 C 87.695312 291.035156 87.066406 290.640625 86.632812 290.164062 C 85.21875 288.613281 85.449219 286.953125 87.109375 285.742188 C 88.292969 284.882812 89.667969 284.3125 90.6875 283.238281 C 91.53125 282.351562 92.5 281.726562 91.953125 280.09375 C 91.65625 279.179688 92.269531 277.886719 92.664062 276.839844 C 93.003906 275.941406 93.003906 275.207031 92.539062 274.363281 C 91.65625 272.757812 90.988281 271.039062 89.707031 269.640625 C 88.566406 268.398438 88.730469 266.726562 89.996094 265.582031 C 91.355469 264.371094 93.003906 263.433594 93.167969 261.296875 C 93.207031 260.820312 93.792969 260.464844 94.308594 260.21875 C 95.792969 259.527344 97.453125 258.953125 98.976562 259.035156 C 102.054688 259.199219 104.574219 257.523438 107.429688 257.089844 C 108.546875 256.925781 108.355469 256.421875 108.03125 255.660156 C 106.96875 253.183594 107.539062 251.15625 109.894531 249.902344 C 111.105469 249.261719 111.050781 247.996094 111.773438 247.195312 C 113.433594 245.398438 114.183594 243.109375 115.324219 241.027344 C 115.707031 240.347656 115.800781 239.816406 115.449219 239.082031 C 114.984375 238.128906 114.957031 237.066406 115.53125 236.101562 C 115.828125 235.597656 115.855469 235.066406 115.828125 234.535156 C 115.746094 232.847656 116.660156 231.921875 118.171875 231.472656 C 119.492188 231.078125 119.722656 230.410156 120.023438 228.925781 C 120.6875 225.632812 118.59375 223.808594 117.203125 221.5625 C 116.5625 220.515625 116.386719 219.332031 115.898438 218.253906 C 115.746094 217.914062 115.71875 217.328125 115.3125 217.398438 C 113.296875 217.695312 112.058594 216.363281 110.792969 215.246094 C 108.640625 213.339844 106.4375 214.28125 104.273438 214.976562 C 103.332031 215.273438 102.488281 215.425781 101.617188 214.949219 C 99.726562 213.914062 97.507812 213.75 95.65625 212.621094 C 95.25 212.375 94.8125 212.144531 94.417969 211.859375 C 93.453125 211.148438 92.566406 211.175781 91.613281 211.910156 C 89.585938 213.492188 86.699219 212.621094 85.925781 210.195312 C 85.746094 209.652344 85.789062 209.121094 86.15625 208.644531 C 86.359375 208.375 86.523438 208.058594 86.277344 207.761719 C 85.980469 207.394531 85.597656 207.542969 85.242188 207.707031 C 84.046875 208.277344 83.066406 209.148438 82.179688 210.101562 C 81.570312 210.769531 80.671875 211.039062 80.167969 210.484375 C 78.929688 209.136719 77.402344 209.324219 75.933594 209.378906 C 74 209.460938 72.230469 208.742188 70.378906 208.425781 C 69.550781 208.277344 69.03125 208.375 68.515625 208.863281 C 66.636719 210.660156 64.117188 211.136719 61.804688 211.953125 C 60.972656 212.253906 60.15625 212.386719 59.601562 213.152344 C 59.082031 213.84375 58.292969 214.144531 57.542969 214.402344 C 56.332031 214.824219 55.503906 214.226562 55.203125 213.054688 C 54.523438 210.457031 55.449219 208.46875 57.9375 207.269531 C 59.546875 206.496094 61.21875 205.867188 62.851562 205.148438 C 63.234375 204.984375 63.5625 204.726562 64.363281 204.222656 C 62.160156 204.453125 61.136719 203.296875 60.078125 202.21875 C 58.824219 200.953125 59.191406 199.265625 60.933594 198.886719 C 62.363281 198.574219 63.371094 197.851562 64.324219 196.859375 C 64.554688 196.625 64.988281 196.355469 64.800781 196.109375 C 63.832031 194.871094 64.214844 192.871094 62.214844 192.132812 C 60.839844 191.617188 59.652344 190.609375 58.15625 190.175781 C 57.339844 189.941406 56.699219 189.152344 56.511719 188.269531 C 56.195312 186.878906 55.339844 185.875 54.480469 184.8125 C 53.039062 183.027344 51.992188 181.054688 52.46875 178.605469 C 52.523438 178.347656 52.550781 177.949219 52.398438 177.816406 C 51.09375 176.671875 51.417969 175.039062 50.984375 173.636719 C 50.628906 172.519531 50.957031 171.894531 51.652344 171.199219 C 52.113281 170.738281 52.578125 170.207031 53.203125 170.054688 C 55.054688 169.632812 56.46875 168.246094 58.402344 167.933594 C 59.75 167.714844 60.238281 165.769531 59.285156 164.828125 C 57.898438 163.453125 58.074219 161.820312 58.675781 160.308594 C 59.601562 157.996094 59.84375 155.820312 58.566406 153.574219 C 58.28125 153.070312 57.953125 152.441406 58.183594 151.871094 C 58.863281 150.128906 58.007812 149.246094 56.550781 148.617188 C 54.632812 147.800781 53.421875 146.222656 52.261719 144.574219 C 51.40625 143.363281 51.132812 142.167969 52.058594 140.847656 C 52.890625 139.675781 52.589844 138.574219 51.71875 137.578125 C 51.175781 136.964844 50.574219 136.421875 49.949219 135.90625 C 49.132812 135.222656 48.261719 134.378906 48.21875 133.425781 C 48.125 130.828125 47.050781 128.488281 46.667969 125.980469 C 46.574219 125.398438 46.585938 124.8125 46.261719 124.265625 C 44.574219 121.421875 45.292969 118.15625 44.722656 115.121094 C 44.546875 114.167969 45.347656 113.335938 44.941406 112.152344 C 44.574219 111.078125 44.914062 109.90625 43.210938 109.785156 C 42.613281 109.742188 42.667969 108.816406 42.679688 108.21875 C 42.707031 106.925781 42.882812 105.617188 42.175781 104.40625 C 42.011719 104.121094 41.972656 103.535156 42.164062 103.320312 C 43.78125 101.304688 43.292969 98.539062 44.628906 96.417969 C 45.171875 95.558594 45.527344 94.675781 46.355469 93.953125 C 47.582031 92.90625 47.527344 91.136719 47.742188 89.71875 C 48.113281 87.269531 49.445312 85.5 51.230469 84.25 C 53.734375 82.492188 55.707031 80.273438 57.871094 78.207031 C 58.972656 77.15625 60.210938 76.273438 61.371094 75.304688 C 62.335938 74.488281 62.785156 73.398438 62.894531 72.175781 C 63.113281 69.589844 65.644531 68.445312 67.835938 69.984375 C 70.054688 71.535156 72.109375 73.320312 74.707031 74.257812 C 75.675781 74.613281 76.65625 74.9375 77.566406 75.386719 C 79.773438 76.476562 79.988281 78.339844 77.933594 79.605469 C 75.8125 80.914062 74.410156 82.65625 73.347656 84.902344 C 72.53125 86.644531 71.128906 88.15625 71.605469 90.277344 C 72.121094 92.59375 72.667969 94.90625 73.59375 97.097656 C 73.890625 97.792969 74.410156 98.089844 75.144531 97.589844 C 75.28125 97.492188 75.484375 97.507812 75.59375 97.410156 C 78.261719 95.261719 80.765625 96.1875 83.175781 97.886719 C 83.921875 98.417969 84.5625 98.539062 85.378906 98.078125 C 86.183594 97.617188 86.441406 96.949219 86.484375 96.0625 C 86.539062 94.703125 85.898438 93.53125 85.503906 92.308594 C 85.285156 91.613281 85.148438 90.945312 85.121094 90.238281 C 85.09375 89.011719 85 87.664062 86.414062 87.203125 C 87.816406 86.738281 89.285156 86.671875 90.5 87.925781 C 92.1875 89.679688 94.105469 91.21875 95.070312 93.574219 C 95.359375 94.253906 95.875 94.660156 96.625 94.867188 C 99.292969 95.628906 101.359375 97.113281 102.667969 99.65625 C 103.714844 101.699219 105.429688 103.074219 107.511719 104.054688 C 109.039062 104.761719 110.507812 105.589844 112.019531 106.328125 C 113.039062 106.832031 114.046875 107.320312 115.257812 107.265625 C 116.347656 107.226562 117.121094 107.835938 117.597656 108.761719 C 118.089844 109.714844 117.410156 110.476562 116.945312 111.132812 C 116.183594 112.207031 115.082031 112.96875 113.761719 113.242188 C 113.066406 113.390625 112.398438 113.609375 112.25 114.277344 C 112.046875 115.1875 113 114.996094 113.472656 115.214844 C 114.820312 115.839844 116.074219 116.550781 116.726562 118.003906 C 117.3125 119.324219 118.496094 119.136719 119.546875 118.820312 C 122.132812 118.03125 124.9375 119.433594 126.554688 121.667969 C 128 123.640625 130.09375 125.371094 132.667969 125.449219 C 135.265625 125.546875 136.449219 127.070312 137.429688 128.964844 C 137.785156 129.65625 137.90625 129.820312 138.65625 129.574219 C 140.195312 129.042969 141.625 129.03125 143.324219 129.601562 C 144.632812 130.039062 146.523438 130.734375 148.117188 129.152344 C 149.179688 128.105469 152.582031 129.261719 153.722656 130.527344 C 154.976562 131.917969 156.417969 133.128906 157.808594 134.394531 C 158.175781 134.71875 158.609375 134.695312 158.992188 134.367188 C 159.320312 134.082031 159.660156 133.796875 159.917969 133.453125 C 161.878906 130.9375 162.613281 130.867188 164.96875 133.183594 C 165.539062 133.742188 166.164062 134.191406 166.886719 134.378906 C 169.144531 134.992188 170.710938 136.476562 172.101562 138.230469 C 172.496094 138.722656 175.953125 139.839844 176.386719 139.511719 C 176.753906 139.238281 176.933594 138.722656 177.191406 138.3125 C 178.265625 136.652344 180.347656 136.21875 181.613281 137.605469 C 182.253906 138.3125 182.933594 138.613281 183.738281 138.925781 C 184.648438 139.28125 185.464844 139.730469 185.984375 140.683594 C 186.5 141.636719 187.738281 141.664062 188.582031 142.234375 C 189.875 143.105469 191.089844 144.140625 192.84375 143.9375 C 193.402344 143.867188 193.988281 144.289062 194.164062 144.765625 C 194.722656 146.277344 195.824219 146.617188 197.269531 146.523438 C 197.566406 146.496094 198.015625 146.617188 198.152344 146.835938 C 199.527344 149.011719 201.910156 148.535156 203.898438 149.054688 C 205.855469 149.570312 207.066406 150.769531 207.4375 152.660156 C 207.859375 154.878906 209.980469 155.847656 210.851562 157.695312 C 210.988281 157.984375 211.191406 157.765625 211.398438 157.695312 C 213.492188 156.933594 215.371094 157.328125 216.335938 159.152344 C 217.234375 160.855469 218.597656 161.589844 220.175781 162.515625 C 223.742188 164.585938 227.664062 166.054688 230.835938 168.777344 C 231.800781 169.605469 232.875 169.648438 233.734375 168.667969 C 236.074219 166 238.59375 166.964844 241.328125 168.328125 C 244.773438 170.042969 247.578125 172.777344 251.140625 174.261719 C 251.589844 174.453125 252.09375 174.644531 252.410156 174.984375 C 254.4375 177.242188 256.847656 176.5625 259.335938 176.140625 C 260.847656 175.882812 262.277344 174.847656 263.910156 175.445312 C 266.332031 176.332031 266.589844 178.578125 266.878906 180.632812 C 267.273438 183.464844 267.339844 183.75 270.101562 183.679688 C 271.914062 183.640625 273.507812 184.253906 275.097656 184.949219 C 277.113281 185.820312 279.25 185.695312 281.359375 185.640625 C 283.917969 185.574219 285.59375 187.03125 287.089844 188.8125 C 287.457031 189.261719 287.648438 190.050781 288.34375 189.820312 C 289.066406 189.589844 289.621094 188.988281 289.648438 188.105469 C 289.648438 188.050781 289.648438 187.996094 289.648438 187.941406 C 289.855469 184.839844 290.34375 184.390625 293.488281 184.390625 C 298.347656 184.375 302.921875 185.449219 307.167969 187.847656 C 308.066406 188.351562 309.101562 188.609375 309.972656 189.070312 C 311.429688 189.859375 313.523438 190.269531 313.347656 192.679688 C 313.320312 193.085938 313.675781 193.332031 313.972656 193.578125 C 314.667969 194.148438 315.265625 194.9375 315.199219 195.78125 C 315.050781 197.878906 316.410156 199.171875 317.527344 200.585938 C 318.167969 201.390625 318.5625 202.167969 318.601562 203.214844 C 318.695312 205.894531 320.753906 207.582031 323.378906 207.242188 C 325.285156 207 327.148438 207.992188 326.960938 209.585938 C 326.644531 212.320312 328.648438 213.179688 330.226562 214.417969 C 331 215.027344 331.765625 215.628906 332.390625 216.375 C 332.976562 217.070312 333.097656 217.859375 332.71875 218.664062 C 332.363281 219.410156 331.695312 219.820312 330.867188 219.765625 C 328.0625 219.617188 325.230469 220.242188 322.453125 219.25 C 321.597656 218.949219 320.753906 219.03125 320.359375 220.335938 C 319.894531 221.902344 318.710938 222.976562 316.777344 223.222656 C 318.722656 224.640625 320.25 226.300781 322.808594 226.285156 C 324.222656 226.273438 324.945312 227.742188 324.523438 229.171875 C 324.304688 229.921875 323.949219 230.558594 324.398438 231.457031 C 325.054688 232.777344 324.304688 234.058594 322.792969 234.070312 C 321.023438 234.085938 319.472656 235.121094 317.402344 234.808594 C 318.929688 236.710938 319.730469 238.753906 321.964844 239.707031 C 323.761719 240.46875 325.191406 241.84375 325.9375 243.761719 C 326.429688 245.015625 327.421875 245.464844 328.550781 244.933594 C 330.457031 244.023438 331.804688 244.703125 332.960938 246.144531 C 333.875 247.289062 334.988281 247.695312 336.488281 247.738281 C 338.855469 247.820312 340.148438 249.765625 341.265625 251.480469 C 341.988281 252.582031 341.195312 253.972656 340.257812 254.84375 C 337.628906 257.238281 334.855469 257.292969 331.925781 255.15625 C 331.546875 254.871094 331.246094 254.421875 330.675781 254.449219 C 330.28125 254.460938 329.980469 254.40625 330.050781 255.0625 C 330.292969 257.386719 329.816406 258.328125 328.320312 258.832031 C 326.496094 259.445312 324.78125 258.75 323.554688 257.265625 C 323.066406 256.667969 323.582031 255.277344 322.261719 255.457031 C 321.445312 255.566406 320.902344 256.300781 320.234375 256.761719 C 319.839844 257.035156 319.445312 257.28125 319.132812 257.6875 C 316.847656 260.574219 313.890625 262.601562 310.761719 264.492188 C 307.902344 266.222656 305.179688 268.183594 302.1875 269.707031 C 299.246094 271.203125 296.359375 272.824219 293.460938 274.375 C 291.335938 275.519531 290.042969 278.800781 291.378906 280.746094 C 292.496094 282.367188 292.453125 283.972656 292.441406 285.699219 C 292.425781 287.742188 294.277344 290.234375 296.265625 290.804688 C 298.714844 291.5 299.546875 293.089844 298.621094 295.488281 C 298.429688 296.003906 298.441406 296.371094 298.632812 296.863281 C 299.125 298.113281 299 299.460938 298.808594 300.726562 C 298.621094 301.992188 297.871094 302.917969 296.347656 302.78125 C 295.910156 302.742188 295.460938 302.742188 295.039062 302.835938 C 293.855469 303.082031 293.5 303.914062 294.304688 304.796875 C 296.007812 306.675781 295.964844 308.335938 294.78125 310.664062 C 293.625 312.9375 291.800781 314.855469 291.132812 317.429688 C 290.808594 318.695312 290.195312 319.949219 288.820312 320.640625 C 288.382812 320.859375 288.070312 321.59375 287.960938 322.152344 C 287.554688 324.03125 286.410156 325.214844 284.667969 325.839844 C 280.460938 327.339844 276.1875 327.925781 272.144531 325.597656 C 269.761719 324.222656 267.148438 322.914062 265.625 320.558594 C 264.632812 319.035156 263.976562 317.28125 262.972656 315.714844 C 262.5625 315.0625 262.875 314.21875 263.761719 313.671875 C 265.882812 312.367188 266.742188 308.882812 265.53125 306.675781 C 265.011719 305.722656 264.660156 304.839844 265.296875 303.777344 C 265.585938 303.300781 265.558594 302.6875 265.285156 302.199219 C 264.453125 300.671875 265.324219 299.734375 266.402344 298.875 C 266.753906 298.605469 267.488281 298.671875 267.328125 297.964844 C 267.203125 297.394531 266.644531 297.214844 266.167969 296.945312 C 264.632812 296.074219 263.078125 295.992188 261.351562 296.234375 C 260.042969 296.414062 258.65625 296.496094 257.363281 295.785156 C 256.667969 295.40625 256.109375 295.636719 255.675781 296.46875 C 254.53125 298.660156 251.824219 299.597656 249.589844 298.660156 C 249.15625 298.480469 248.609375 298.222656 248.582031 297.691406 C 248.460938 295.417969 246.679688 294.589844 245.167969 293.378906 C 242.582031 291.308594 239.628906 290.316406 236.484375 289.6875 C 234.140625 289.226562 231.308594 286.53125 230.941406 284.257812 C 230.847656 283.644531 230.574219 283.058594 229.960938 283.222656 C 227.402344 283.917969 225.539062 282 223.28125 281.5625 C 223.226562 281.550781 223.183594 281.496094 223.128906 281.496094 C 220.449219 281.578125 219.523438 279.859375 219.128906 277.601562 C 219.058594 277.234375 219.03125 276.769531 218.515625 276.796875 C 218 276.824219 217.984375 277.273438 217.984375 277.65625 C 217.957031 279.4375 216.894531 279.96875 215.304688 279.96875 C 213.574219 279.96875 211.75 280.269531 211.015625 278.023438 C 210.90625 277.695312 210.5 277.4375 210.0625 277.667969 C 209.546875 277.929688 208.851562 278.023438 208.890625 278.828125 C 208.933594 279.765625 208.550781 280.527344 207.910156 281.167969 C 207.09375 281.972656 206.183594 282.679688 206.824219 284.054688 C 206.917969 284.246094 206.808594 284.613281 206.671875 284.828125 C 205.691406 286.503906 203.71875 286.695312 202.25 287.632812 C 201.390625 288.191406 200.371094 287.265625 199.636719 286.679688 C 198.804688 286.015625 197.960938 285.78125 196.925781 285.851562 C 196.015625 285.917969 195.105469 285.890625 194.230469 285.402344 C 193.484375 284.980469 192.613281 285.046875 191.863281 285.402344 C 190.570312 286.027344 189.496094 285.414062 188.5 284.828125 C 187.496094 284.246094 187.425781 283.058594 188 282.230469 C 188.707031 281.179688 188.964844 279.929688 189.742188 278.949219 C 189.929688 278.71875 190.269531 278.460938 189.972656 278.117188 C 189.863281 277.996094 189.578125 278.011719 189.359375 278.011719 C 188.992188 278.011719 188.664062 278.199219 188.664062 278.566406 C 188.707031 280.28125 188 281.261719 186.1875 281.234375 C 184.800781 281.222656 183.398438 281.535156 182.160156 280.445312 C 181.070312 279.492188 180.757812 279.699219 180.5 281.25 C 180.308594 282.460938 178.019531 283.726562 176.660156 283.769531 C 174.902344 283.820312 173.1875 283.183594 171.40625 283.769531 C 170.015625 284.21875 168.820312 283.195312 168.246094 281.398438 C 167.769531 279.859375 168.21875 279.015625 169.636719 278.378906 C 171.121094 277.710938 171.949219 276.132812 173.460938 275.4375 C 173.949219 275.207031 173.597656 274.867188 173.230469 274.621094 C 172.617188 274.183594 172.058594 273.640625 171.472656 273.179688 C 170.519531 272.414062 169.960938 271.503906 170.070312 270.238281 C 170.152344 269.433594 170.003906 268.617188 169.144531 268.347656 C 168.382812 268.085938 167.554688 268.058594 166.820312 268.644531 C 166.234375 269.121094 165.578125 269.503906 164.953125 269.953125 C 164.273438 270.429688 163.6875 270.644531 162.734375 270.429688 C 161.292969 270.101562 160.109375 271.191406 159.003906 272.019531 C 157.699219 273 156.527344 274.105469 154.746094 274.171875 C 153.75 274.210938 154.351562 274.878906 154.527344 275.207031 C 155.015625 276.132812 155.4375 277.085938 154.390625 277.804688 C 153.21875 278.621094 151.941406 279.480469 150.390625 278.839844 C 149.519531 278.488281 148.742188 278.269531 147.761719 278.527344 C 146.0625 278.976562 144.398438 278.417969 142.863281 277.75 C 141.855469 277.316406 141.335938 277.574219 140.792969 278.308594 C 139.8125 279.628906 138.628906 280.472656 136.898438 279.808594 C 136.4375 279.628906 136.371094 279.859375 136.207031 280.175781 C 135.417969 281.671875 134.042969 281.480469 132.777344 281.179688 C 131.550781 280.882812 131.402344 279.78125 131.484375 278.675781 C 131.539062 277.886719 131.332031 277.546875 130.488281 277.875 C 130.121094 278.023438 129.769531 277.695312 129.414062 277.601562 C 128.1875 277.289062 126.976562 277.125 125.886719 278.105469 C 124.839844 279.042969 123.804688 278.757812 123.167969 277.640625 C 122.769531 276.949219 122.484375 277.070312 121.898438 277.21875 C 120.6875 277.535156 119.601562 277.546875 118.824219 276.1875 C 118.183594 275.054688 117.585938 275.980469 117.066406 276.484375 C 116.265625 277.273438 115.296875 277.683594 114.25 277.207031 C 113.378906 276.8125 112.617188 276.023438 112.738281 275.054688 C 112.917969 273.574219 113.1875 271.898438 114.6875 271.136719 C 116.304688 270.304688 115.667969 268.644531 116.277344 267.449219 C 116.496094 267.011719 115.285156 266.34375 114.742188 266.820312 C 113.679688 267.789062 112.601562 267.898438 111.324219 267.582031 C 110.65625 267.421875 110.4375 267.597656 110.535156 268.441406 C 110.710938 270.101562 109.105469 271.015625 107.636719 270.222656 C 107.347656 270.074219 107.078125 269.898438 106.804688 269.71875 C 106.125 269.285156 105.714844 268.292969 104.871094 268.347656 C 103.988281 268.398438 103.917969 269.53125 103.347656 270.089844 C 101.808594 271.597656 101.917969 271.667969 103.335938 273.382812 C 104.953125 275.34375 105.921875 277.683594 106.097656 280.203125 C 106.273438 282.71875 106.738281 284.953125 108.75 286.734375 C 109.773438 287.632812 110.332031 288.96875 110.152344 290.410156 C 109.910156 292.234375 111.28125 294.140625 109.730469 296.019531 Z M 109.730469 296.019531 " fill-opacity="1" fill-rule="nonzero"/></svg>