<svg xmlns="http://www.w3.org/2000/svg" xmlns:xlink="http://www.w3.org/1999/xlink" width="1080" zoomAndPan="magnify" viewBox="0 0 810 809.999993" height="1080" preserveAspectRatio="xMidYMid meet" version="1.0"><defs><g/><clipPath id="d808fe1e50"><path d="M 0 155.324219 L 575.816406 155.324219 L 575.816406 604.742188 L 0 604.742188 Z M 0 155.324219 " clip-rule="nonzero"/></clipPath><clipPath id="6e61b744cf"><path d="M 75 155.324219 L 500.445312 155.324219 C 541.867188 155.324219 575.445312 188.902344 575.445312 230.324219 L 575.445312 529.742188 C 575.445312 571.164062 541.867188 604.742188 500.445312 604.742188 L 75 604.742188 C 33.578125 604.742188 0 571.164062 0 529.742188 L 0 230.324219 C 0 188.902344 33.578125 155.324219 75 155.324219 Z M 75 155.324219 " clip-rule="nonzero"/></clipPath><clipPath id="a104e6c9b3"><path d="M 0 155.324219 L 575.25 155.324219 L 575.25 604.574219 L 0 604.574219 Z M 0 155.324219 " clip-rule="nonzero"/></clipPath><clipPath id="28419e80d3"><path d="M 75 155.324219 L 500.4375 155.324219 C 541.859375 155.324219 575.4375 188.902344 575.4375 230.324219 L 575.4375 529.738281 C 575.4375 571.15625 541.859375 604.734375 500.4375 604.734375 L 75 604.734375 C 33.578125 604.734375 0 571.15625 0 529.738281 L 0 230.324219 C 0 188.902344 33.578125 155.324219 75 155.324219 Z M 75 155.324219 " clip-rule="nonzero"/></clipPath></defs><g clip-path="url(#d808fe1e50)"><g clip-path="url(#6e61b744cf)"><path fill="#000000" d="M 0 155.324219 L 575.816406 155.324219 L 575.816406 604.742188 L 0 604.742188 Z M 0 155.324219 " fill-opacity="1" fill-rule="nonzero"/></g></g><g clip-path="url(#a104e6c9b3)"><g clip-path="url(#28419e80d3)"><path stroke-linecap="butt" transform="matrix(0.75, 0, 0, 0.75, 0.0000035, 155.324631)" fill="none" stroke-linejoin="miter" d="M 100 -0.000549114 L 667.250029 -0.000549114 C 722.479198 -0.000549114 767.250034 44.770286 767.250034 99.999456 L 767.250034 499.218226 C 767.250034 554.442187 722.479198 599.213023 667.250029 599.213023 L 100 599.213023 C 44.770831 599.213023 -0.00000466667 554.442187 -0.00000466667 499.218226 L -0.00000466667 99.999456 C -0.00000466667 44.770286 44.770831 -0.000549114 100 -0.000549114 Z M 100 -0.000549114 " stroke="#ffffff" stroke-width="8" stroke-opacity="1" stroke-miterlimit="4"/></g></g><g fill="#ffffff" fill-opacity="1"><g transform="translate(-0.652388, 497.723072)"><g><path d="M 170.125 -274.6875 C 192.226562 -274.6875 209.472656 -270.253906 221.859375 -261.390625 C 234.242188 -252.523438 240.4375 -239.101562 240.4375 -221.125 C 240.4375 -184.9375 226.957031 -160.285156 200 -147.171875 L 200 -146.453125 C 230.84375 -142.316406 246.265625 -124.707031 246.265625 -93.625 C 246.265625 -64.238281 236.242188 -41.285156 216.203125 -24.765625 C 196.171875 -8.253906 169.15625 0 135.15625 0 L 23.3125 0 L 66.671875 -274.6875 Z M 129.6875 -220.03125 L 121.3125 -166.84375 L 130.78125 -166.84375 C 158.46875 -166.84375 172.3125 -177.648438 172.3125 -199.265625 C 172.3125 -206.304688 169.640625 -211.523438 164.296875 -214.921875 C 158.953125 -218.328125 149.84375 -220.03125 136.96875 -220.03125 Z M 103.453125 -54.640625 L 119.484375 -54.640625 C 139.640625 -54.640625 153.847656 -57.675781 162.109375 -63.75 C 170.367188 -69.820312 174.5 -78.320312 174.5 -89.25 C 174.5 -98 171.34375 -104.253906 165.03125 -108.015625 C 158.71875 -111.773438 147.910156 -113.65625 132.609375 -113.65625 L 112.5625 -113.65625 Z M 103.453125 -54.640625 "/></g></g></g><g fill="#ffffff" fill-opacity="1"><g transform="translate(207.348312, 497.723072)"><g><path d="M 138.0625 -274.6875 L 242.25 -106.734375 L 242.984375 -106.734375 L 269.578125 -274.6875 L 340.984375 -274.6875 L 297.625 0 L 226.234375 0 L 122.046875 -168.3125 L 121.3125 -168.3125 L 94.71875 0 L 23.3125 0 L 66.671875 -274.6875 Z M 138.0625 -274.6875 "/></g></g></g><path stroke-linecap="butt" transform="matrix(8.970843, 0, 0, 8.970843, 457.6537, 73.078824)" fill="none" stroke-linejoin="miter" d="M 24.907365 12.793975 C 28.14485 12.793975 30.666474 13.445391 32.471802 14.747352 C 34.285838 16.040604 35.193292 18.002255 35.193292 20.632303 C 35.193292 25.927235 33.222933 29.533536 29.282215 31.452078 L 29.282215 31.556148 C 33.795535 32.163585 36.052412 34.74138 36.052412 39.289971 C 36.052412 43.595151 34.58542 46.958913 31.651871 49.380386 C 28.717887 51.793586 24.764105 53.000186 19.790527 53.000186 L 3.411074 53.000186 L 9.764992 12.793975 Z M 18.983224 20.788626 L 17.759207 28.574265 L 19.139547 28.574265 C 23.193043 28.574265 25.219574 26.99014 25.219574 23.822325 C 25.219574 22.797739 24.828986 22.038334 24.047809 21.543676 C 23.266632 21.040309 21.934191 20.788626 20.050919 20.788626 Z M 15.142222 45.005536 L 17.485751 45.005536 C 20.437153 45.005536 22.515937 44.563131 23.722537 43.677449 C 24.937845 42.783493 25.545282 41.533785 25.545282 39.927888 C 25.545282 38.652053 25.081105 37.740681 24.152314 37.19377 C 23.232233 36.63815 21.652462 36.360341 19.413002 36.360341 L 16.483372 36.360341 Z M 15.142222 45.005536 " stroke="#000000" stroke-width="4.599997" stroke-opacity="1" stroke-miterlimit="4"/><g fill="#ffffff" fill-opacity="1"><g transform="translate(457.6537, 548.533485)"><g><path d="M 223.421875 -360.734375 C 252.441406 -360.734375 275.085938 -354.910156 291.359375 -343.265625 C 307.628906 -331.628906 315.765625 -314.007812 315.765625 -290.40625 C 315.765625 -242.882812 298.0625 -210.507812 262.65625 -193.28125 L 262.65625 -192.328125 C 303.15625 -186.898438 323.40625 -163.773438 323.40625 -122.953125 C 323.40625 -84.359375 310.25 -54.21875 283.9375 -32.53125 C 257.625 -10.84375 222.144531 0 177.5 0 L 30.625 0 L 87.546875 -360.734375 Z M 170.3125 -288.96875 L 159.3125 -219.125 L 171.75 -219.125 C 208.113281 -219.125 226.296875 -233.316406 226.296875 -261.703125 C 226.296875 -270.953125 222.785156 -277.804688 215.765625 -282.265625 C 208.753906 -286.734375 196.796875 -288.96875 179.890625 -288.96875 Z M 135.875 -71.765625 L 156.921875 -71.765625 C 183.390625 -71.765625 202.046875 -75.75 212.890625 -83.71875 C 223.742188 -91.695312 229.171875 -102.863281 229.171875 -117.21875 C 229.171875 -128.695312 225.019531 -136.90625 216.71875 -141.84375 C 208.425781 -146.789062 194.234375 -149.265625 174.140625 -149.265625 L 147.828125 -149.265625 Z M 135.875 -71.765625 "/></g></g></g></svg>